<svg id="Livello_1" data-name="Livello 1" xmlns="http://www.w3.org/2000/svg" viewBox="0 0 850.53 213.2"><defs><style>.cls-1,.cls-2{fill:#fff;}.cls-1{stroke:#fff;stroke-miterlimit:10;stroke-width:0.76px;}</style></defs><title>bottone transfer</title><path class="cls-1" d="M526.93,35.19h35a88.74,88.74,0,0,1,88.74,88.74V796.22A88.74,88.74,0,0,1,561.89,885h-35a88.75,88.75,0,0,1-88.75-88.75V123.94a88.75,88.75,0,0,1,88.75-88.75Z" transform="translate(885.34 -437.81) rotate(90)"/><rect x="7.97" y="7.97" width="834.6" height="197.27" rx="78.74"/><path class="cls-2" d="M484.1,439.49h10.63c3.62,0,6.27.84,7.93,2.52s2.5,4.28,2.5,7.78v1.79a12.39,12.39,0,0,1-1.12,5.63,6.59,6.59,0,0,1-3.43,3.14v.13q5.25,1.78,5.25,9.34v3.84q0,5.19-2.72,7.9t-8,2.73H484.1Zm9.79,18.23a4.24,4.24,0,0,0,3.17-1.08,5.12,5.12,0,0,0,1.06-3.65v-2.5a5.67,5.67,0,0,0-.87-3.52,3.27,3.27,0,0,0-2.72-1.09h-3.39v11.84Zm1.28,20.16a3.55,3.55,0,0,0,2.76-1,5.14,5.14,0,0,0,.89-3.42v-3.91c0-2-.35-3.46-1.05-4.25a4.49,4.49,0,0,0-3.49-1.19h-3.14v13.76Z" transform="translate(-119.14 -353.48)"/><path class="cls-2" d="M512.2,482q-2.76-2.94-2.76-8.32V450.11c0-3.58.92-6.36,2.76-8.32s4.48-2.94,7.93-2.94,6.1,1,7.94,2.94,2.75,4.74,2.75,8.32v23.55q0,5.38-2.75,8.32c-1.84,2-4.48,2.95-7.94,2.95S514,483.94,512.2,482Zm11.58-7.87V449.66q0-4.41-3.65-4.41t-3.65,4.41v24.45c0,2.94,1.22,4.42,3.65,4.42S523.78,477.05,523.78,474.11Z" transform="translate(-119.14 -353.48)"/><path class="cls-2" d="M537.8,482Q535,479,535,473.66V450.11c0-3.58.92-6.36,2.76-8.32s4.48-2.94,7.93-2.94,6.1,1,7.94,2.94,2.75,4.74,2.75,8.32v23.55q0,5.38-2.75,8.32c-1.84,2-4.48,2.95-7.94,2.95S539.63,483.94,537.8,482Zm11.58-7.87V449.66q0-4.41-3.65-4.41t-3.65,4.41v24.45c0,2.94,1.22,4.42,3.65,4.42S549.38,477.05,549.38,474.11Z" transform="translate(-119.14 -353.48)"/><path class="cls-2" d="M561.16,439.49h7v18.88l9-18.88h7l-8.39,16.44,8.51,28.36H577l-6-20L568.2,470v14.28h-7Z" transform="translate(-119.14 -353.48)"/><path class="cls-2" d="M603.33,439.49h9.54l7.29,44.8h-7l-1.28-8.9v.13h-8l-1.28,8.77H596ZM611,469.44l-3.14-22.15h-.12l-3.08,22.15Z" transform="translate(-119.14 -353.48)"/><path class="cls-2" d="M639.3,445.88h-7.36v-6.39H653.7v6.39h-7.36v38.41h-7Z" transform="translate(-119.14 -353.48)"/><path class="cls-2" d="M657.09,439.49h10.43c3.63,0,6.27.84,7.94,2.52s2.49,4.28,2.49,7.78v2.75q0,7-4.61,8.83v.13a5.48,5.48,0,0,1,3.62,3.14A15.84,15.84,0,0,1,678,471v7.88c0,1.27,0,2.31.12,3.1a8,8,0,0,0,.64,2.34h-7.16a10.46,10.46,0,0,1-.52-2.05,32.86,32.86,0,0,1-.12-3.46v-8.19c0-2-.33-3.48-1-4.29a4.19,4.19,0,0,0-3.42-1.22h-2.43v19.21h-7Zm9.6,19.2a4.26,4.26,0,0,0,3.17-1.09,5.17,5.17,0,0,0,1-3.65v-3.46a5.74,5.74,0,0,0-.86-3.52,3.28,3.28,0,0,0-2.72-1.09h-3.2v12.81Z" transform="translate(-119.14 -353.48)"/><path class="cls-2" d="M688.32,439.49h9.54l7.29,44.8h-7l-1.28-8.9v.13h-8l-1.28,8.77H681ZM696,469.44l-3.14-22.15h-.12l-3.08,22.15Z" transform="translate(-119.14 -353.48)"/><path class="cls-2" d="M708.54,439.49h8.84l6.84,26.81h.13V439.49h6.27v44.8h-7.23l-8.45-32.71h-.12v32.71h-6.28Z" transform="translate(-119.14 -353.48)"/><path class="cls-2" d="M737.28,482q-2.62-2.91-2.63-8.35V471.1h6.66v3.07q0,4.36,3.65,4.36a3.45,3.45,0,0,0,2.72-1.06,5.14,5.14,0,0,0,.93-3.43,9.57,9.57,0,0,0-1.28-5,24.31,24.31,0,0,0-4.74-5.15,28.32,28.32,0,0,1-6.08-6.94,14.2,14.2,0,0,1-1.73-7q0-5.31,2.69-8.22t7.81-2.91q5.06,0,7.65,2.91c1.72,1.94,2.59,4.72,2.59,8.35V452h-6.66v-2.3a5.2,5.2,0,0,0-.89-3.36,3.28,3.28,0,0,0-2.63-1.05c-2.34,0-3.52,1.43-3.52,4.28a8.5,8.5,0,0,0,1.31,4.55,25.44,25.44,0,0,0,4.77,5.12,26.24,26.24,0,0,1,6.08,7,15.49,15.49,0,0,1,1.67,7.36q0,5.5-2.72,8.45c-1.82,2-4.45,2.95-7.91,2.95S739,484,737.28,482Z" transform="translate(-119.14 -353.48)"/><path class="cls-2" d="M759.68,439.49H778.3v6.39H766.72v12.49h9.09v6.4h-9.09v19.52h-7Z" transform="translate(-119.14 -353.48)"/><path class="cls-2" d="M781.69,439.49h19.2v6.39H788.73v11.84h9.67v6.4h-9.67v13.76h12.16v6.41h-19.2Z" transform="translate(-119.14 -353.48)"/><path class="cls-2" d="M804.93,439.49h10.43c3.62,0,6.27.84,7.93,2.52s2.5,4.28,2.5,7.78v2.75q0,7-4.61,8.83v.13a5.5,5.5,0,0,1,3.62,3.14,15.86,15.86,0,0,1,1.05,6.33v7.88c0,1.27,0,2.31.13,3.1a8,8,0,0,0,.64,2.34h-7.17a11.14,11.14,0,0,1-.51-2.05,32,32,0,0,1-.13-3.46v-8.19q0-3.07-1-4.29a4.19,4.19,0,0,0-3.42-1.22H812v19.21h-7Zm9.6,19.2a4.23,4.23,0,0,0,3.16-1.09,5.12,5.12,0,0,0,1.06-3.65v-3.46a5.74,5.74,0,0,0-.86-3.52,3.29,3.29,0,0,0-2.72-1.09H812v12.81Z" transform="translate(-119.14 -353.48)"/><path d="M425.52,546h-227V378.13h227ZM219.29,451.35l-1.45,1.81c-3.41,4.38-4.39,9.5-4.59,14.86A197.08,197.08,0,0,0,216,509.89a5.82,5.82,0,0,0,6.89,4.88c-1.38-6-3.74-11.92-.74-18.55v3.07l46.8,6.4,0,.38-5.22.54c.66,2.41,1.27,4.62,1.86,6.84s0,4.07-2.19,4.81a15,15,0,0,1-5.91.69,90.44,90.44,0,0,1-10.24-1.45c-7.75-1.49-15.47-3.11-23.21-4.66-.13,0-.32.2-.26.16v2.62a16.5,16.5,0,0,1-2.54-.15c-1.08-.21-2.12-.6-3.65-1.06,1.95,3.22,4,5.33,7.28,6.18A180.6,180.6,0,0,0,256.18,526c4.76.36,9.69.45,13.81-2.26,4.4-2.9,9.23-3.34,14.16-3.68a361.79,361.79,0,0,1,50.58,0c4.85.35,9.55.91,14,3.57a19.72,19.72,0,0,0,9.5,2.34c12.47.09,24.61-2.49,36.62-5.61,2.85-.73,4.62-2.85,6.25-5.79-1.28.34-2.11.54-2.93.78-3.35,1-3.39.94-3-2.47a31.27,31.27,0,0,1-3.59,1.11c-9.26,1.64-18.52,3.27-27.79,4.78a24.65,24.65,0,0,1-6.47.26c-3.05-.33-5.13-3-4-5.93a56.17,56.17,0,0,0,1.73-6.47l-5.34-.51,0-.36,47-6.43v-3c2.89,6.58.65,12.53-.93,19,1.71-.52,3.14-1,4.58-1.39a3,3,0,0,0,2.37-2.92c.23-2.29.5-4.58.88-6.84a168.79,168.79,0,0,0,1.53-40.29c-.34-4.8-2.52-8.81-5.66-12.37-.15,2-.28,3.8-.41,5.62l-.58.13c1.39-7.51-2.66-12.07-8.29-16.13a3.76,3.76,0,0,0,.08.85c3.25,6.74,3.28,13.71,1.39,20.8a10.18,10.18,0,0,1-1,1.95l-.62-.28c.08-.65.19-1.3.24-2,.28-3.77.69-7.55.77-11.33.16-7.71-4.85-11.87-10.91-15.49-2.71,4.46-5.34,8.76-8,13.06l-.3-.16,7-13.94c-46.48-1.56-92.63-1.58-139.06,0l7,13.93-.32.16-8-13.15c-1.69,1.22-3.26,2.26-4.73,3.43-3.87,3.06-6.25,7-6.09,12,.12,3.85.5,7.69.77,11.53,0,.67.11,1.34.17,2h-.91a30.32,30.32,0,0,1,.82-23.23c-5.66,3.79-9.62,8.43-8.28,16l-.61-.22Zm168.29-12.79c-1.47-2-2.92-4-4.42-6-.25-.33-.77-.45-1.13-.71-.69-.5-1.64-.89-2-1.57-3.09-6-6-12.11-9.11-18.13-1.35-2.64-2.87-5.22-4.44-7.74-4.09-6.55-9.11-11-17.69-11.27-12.43-.32-24.83-2.13-37.27-2.56-13.83-.48-27.59,1.2-41.34,2.62-3.81.39-7.64.37-10.69,3-2,1.72-4.11,3.48-5.43,5.67-3.65,6.08-6.73,12.5-10.37,18.57-2.45,4.08-3,9.32-7.89,12-2,1.12-3.12,4-4.63,6,1.51-.6,2.68-1.56,4-2.22,3-1.51,4.77-4,6.26-6.89,4.38-8.56,8.91-17,13.41-25.52a9.58,9.58,0,0,1,1.77-2.45c1.68-1.63,3.48-3.14,5.24-4.69.29-.26.64-.45,1.35-.94-.61,1-.94,1.47-1.25,2s-.55,1-1,1.77a577.18,577.18,0,0,1,96.88,0l-2.05-3.39A23.81,23.81,0,0,1,359,399c.53.51,1.12,1,1.62,1.49,1.18,1.25,2.64,2.36,3.43,3.83,4.59,8.44,9.24,16.87,13.4,25.52C379.62,434.35,383.7,436.18,387.58,438.56Zm-8.4-11.23c1,1.25,1.92,3.39,3,3.5a26.83,26.83,0,0,0,14.43-2.42,3.8,3.8,0,0,0,1.76-2.62,6.17,6.17,0,0,0-5-6.51c-2.72-.43-5.51-.48-8.28-.68-.17,0-.36.14-.6.23l-.07,1.64c-1.05-.57-2.13-2.56-3-.41-.67,1.64-.49,3.63-.68,5.37l3.05.71v.65Zm-144.25-.59,0-.6,3.07-.74c-.16-1.47-.24-2.87-.49-4.25a8.61,8.61,0,0,0-.84-1.9c-.66.35-1.33.71-2,1.05a1.2,1.2,0,0,1-.34,0l-.25-1.76c-.81,0-1.49,0-2.16,0-2,.17-4,.29-6,.61a6.34,6.34,0,0,0-5.49,5.46c-.38,2,.17,3.52,2.15,4a114.77,114.77,0,0,0,11.86,2.27c3.2.4,4-.5,4.58-3.57Zm-17.78,89.68h-.6c0,1.84-.34,3.75.07,5.48.83,3.54,2,4.21,5.69,4.26.88,0,1.76.08,2.64.12l18.3.74c-7.24-1.11-14.49-1.89-21.76-2.5-1.92-.17-2.89-.78-3.11-2.81A43.49,43.49,0,0,0,217.15,516.42Zm184.56-.29a42.49,42.49,0,0,0-1.31,5.43c-.22,2.21-1.29,2.81-3.39,3-7.2.58-14.38,1.39-21.81,2.14a3,3,0,0,0,.61.19c7.7-.25,15.41-.49,23.12-.77a2.27,2.27,0,0,0,1.24-.54C402.38,523.61,403.18,519.16,401.71,516.13Zm-14.65-5.22a3.43,3.43,0,0,0,3.55-3.16,3.29,3.29,0,0,0-3.32-3.15,3.18,3.18,0,1,0-.23,6.31ZM231.63,504.6a3.31,3.31,0,0,0-3.48,3.2,3.45,3.45,0,0,0,3.6,3.11,3.4,3.4,0,0,0,3.38-3.13A3.31,3.31,0,0,0,231.63,504.6Zm-3.43,7.09c-.48-1.41-1.67-3.16-1.39-4.62s2-2.86,2.93-4.05c-2.68-.19-5,1.44-5.16,4.09A4.13,4.13,0,0,0,228.2,511.69Zm160.26-8.62c5.18,2.92,4.34,5.87,1.54,8.67a4.28,4.28,0,0,0,4.17-4.66C394,504.43,391.68,502.83,388.46,503.07Z" transform="translate(-119.14 -353.48)"/><path class="cls-2" d="M219.29,451.35l.36,5.66.61.22c-1.34-7.54,2.62-12.18,8.28-16a30.32,30.32,0,0,0-.82,23.23h.91c-.06-.67-.12-1.34-.17-2-.27-3.84-.65-7.68-.77-11.53-.16-5.07,2.22-9,6.09-12,1.47-1.17,3-2.21,4.73-3.43l8,13.15.32-.16-7-13.93c46.43-1.58,92.58-1.56,139.06,0l-7,13.94.3.16c2.62-4.3,5.25-8.6,8-13.06,6.06,3.62,11.07,7.78,10.91,15.49-.08,3.78-.49,7.56-.77,11.33-.05.66-.16,1.31-.24,2l.62.28a10.18,10.18,0,0,0,1-1.95c1.89-7.09,1.86-14.06-1.39-20.8a3.76,3.76,0,0,1-.08-.85c5.63,4.06,9.68,8.62,8.29,16.13l.58-.13c.13-1.82.26-3.64.41-5.62,3.14,3.56,5.32,7.57,5.66,12.37a168.79,168.79,0,0,1-1.53,40.29c-.38,2.26-.65,4.55-.88,6.84a3,3,0,0,1-2.37,2.92c-1.44.41-2.87.87-4.58,1.39,1.58-6.47,3.82-12.42.93-19v3l-47,6.43,0,.36,5.34.51a56.17,56.17,0,0,1-1.73,6.47c-1.16,3,.92,5.6,4,5.93a24.65,24.65,0,0,0,6.47-.26c9.27-1.51,18.53-3.14,27.79-4.78a31.27,31.27,0,0,0,3.59-1.11c-.4,3.41-.36,3.44,3,2.47.82-.24,1.65-.44,2.93-.78-1.63,2.94-3.4,5.06-6.25,5.79-12,3.12-24.15,5.7-36.62,5.61a19.72,19.72,0,0,1-9.5-2.34c-4.44-2.66-9.14-3.22-14-3.57a361.79,361.79,0,0,0-50.58,0c-4.93.34-9.76.78-14.16,3.68-4.12,2.71-9.05,2.62-13.81,2.26a180.6,180.6,0,0,1-31.38-5.36c-3.3-.85-5.33-3-7.28-6.18,1.53.46,2.57.85,3.65,1.06a16.5,16.5,0,0,0,2.54.15V513c-.06,0,.13-.18.26-.16,7.74,1.55,15.46,3.17,23.21,4.66A90.44,90.44,0,0,0,257.42,519a15,15,0,0,0,5.91-.69c2.17-.74,2.78-2.61,2.19-4.81s-1.2-4.43-1.86-6.84l5.22-.54,0-.38-46.8-6.4v-3.07c-3,6.63-.64,12.57.74,18.55a5.82,5.82,0,0,1-6.89-4.88A197.08,197.08,0,0,1,213.25,468c.2-5.36,1.18-10.48,4.59-14.86Zm142.84,22c-.89,3-1.73,5.74-2.47,8.47-1.28,4.73-.61,5.74,5,5.17a5.35,5.35,0,0,0,.79-.19c6.61-1.46,13.23-2.89,19.83-4.37,3.24-.72,6.47-1.48,9.67-2.31,2.06-.53,3.22-1.71,2.94-4.1-.32-2.75-.36-5.54-.5-8.31-.15-3.06-.71-3.43-3.8-2.8Q373.37,469,353.17,473a5.4,5.4,0,0,1-2,.08c-2.47-.45-4.93-1.42-7.4-1.43q-34.57-.17-69.15,0c-2.33,0-4.66.95-7,1.41a4.25,4.25,0,0,1-1.59,0c-6.11-1.18-12.22-2.36-18.33-3.6-7.75-1.57-15.49-3.2-23.25-4.78-2.13-.43-2.9.21-3,2.34s-.21,4.47-.41,6.69c-.47,5.11-.08,5.7,4.94,7,.2.05.39.13.59.17,7.07,1.56,14.13,3.16,21.22,4.66a76.43,76.43,0,0,0,9,1.49c2.47.2,3.1-.74,2.81-3.24a9.44,9.44,0,0,0-.3-1.38c-.83-3-1.67-5.91-2.56-9.08,3.38.8,6.54,1.48,9.66,2.33a2.4,2.4,0,0,1,1.18,1.54c3.2,11.32,6.23,22.68,9.54,34,1.28,4.35,4.36,6.24,8.82,6.24h47c4.48,0,7.54-1.86,8.83-6.23,3.32-11.28,6.35-22.65,9.55-34a2.52,2.52,0,0,1,1.37-1.59C355.65,474.84,358.75,474.17,362.13,473.37Z" transform="translate(-119.14 -353.48)"/><path class="cls-2" d="M387.58,438.56c-3.88-2.38-8-4.21-10.15-8.75-4.16-8.65-8.81-17.08-13.4-25.52-.79-1.47-2.25-2.58-3.43-3.83-.5-.53-1.09-1-1.62-1.49a23.81,23.81,0,0,0-3.16-2.74l2.05,3.39a577.18,577.18,0,0,0-96.88,0c.41-.75.67-1.27,1-1.77s.64-1,1.25-2c-.71.49-1.06.68-1.35.94-1.76,1.55-3.56,3.06-5.24,4.69a9.58,9.58,0,0,0-1.77,2.45c-4.5,8.49-9,17-13.41,25.52-1.49,2.91-3.26,5.38-6.26,6.89-1.31.66-2.48,1.62-4,2.22,1.51-2.07,2.59-4.92,4.63-6,4.93-2.73,5.44-8,7.89-12,3.64-6.07,6.72-12.49,10.37-18.57,1.32-2.19,3.46-4,5.43-5.67,3.05-2.66,6.88-2.64,10.69-3,13.75-1.42,27.51-3.1,41.34-2.62,12.44.43,24.84,2.24,37.27,2.56,8.58.23,13.6,4.72,17.69,11.27,1.57,2.52,3.09,5.1,4.44,7.74,3.08,6,6,12.11,9.11,18.13.35.68,1.3,1.07,2,1.57.36.26.88.38,1.13.71C384.66,434.55,386.11,436.56,387.58,438.56Z" transform="translate(-119.14 -353.48)"/><path class="cls-2" d="M379.18,427.33l4.62-.54v-.65l-3.05-.71c.19-1.74,0-3.73.68-5.37.88-2.15,2-.16,3,.41l.07-1.64c.24-.09.43-.24.6-.23,2.77.2,5.56.25,8.28.68a6.17,6.17,0,0,1,5,6.51,3.8,3.8,0,0,1-1.76,2.62,26.83,26.83,0,0,1-14.43,2.42C381.1,430.72,380.2,428.58,379.18,427.33Z" transform="translate(-119.14 -353.48)"/><path class="cls-2" d="M234.93,426.74l4.07.58c-.6,3.07-1.38,4-4.58,3.57a114.77,114.77,0,0,1-11.86-2.27c-2-.45-2.53-2-2.15-4a6.34,6.34,0,0,1,5.49-5.46c2-.32,4-.44,6-.61.67-.05,1.35,0,2.16,0l.25,1.76a1.2,1.2,0,0,0,.34,0c.67-.34,1.34-.7,2-1.05a8.61,8.61,0,0,1,.84,1.9c.25,1.38.33,2.78.49,4.25l-3.07.74Z" transform="translate(-119.14 -353.48)"/><path class="cls-2" d="M217.15,516.42a43.49,43.49,0,0,1,1.23,5.29c.22,2,1.19,2.64,3.11,2.81,7.27.61,14.52,1.39,21.76,2.5l-18.3-.74c-.88,0-1.76-.11-2.64-.12-3.72,0-4.86-.72-5.69-4.26-.41-1.73-.07-3.64-.07-5.48Z" transform="translate(-119.14 -353.48)"/><path class="cls-2" d="M401.71,516.13c1.47,3,.67,7.48-1.54,9.43a2.27,2.27,0,0,1-1.24.54c-7.71.28-15.42.52-23.12.77a3,3,0,0,1-.61-.19c7.43-.75,14.61-1.56,21.81-2.14,2.1-.17,3.17-.77,3.39-3A42.49,42.49,0,0,1,401.71,516.13Z" transform="translate(-119.14 -353.48)"/><path class="cls-2" d="M387.06,510.91a3.18,3.18,0,1,1,.23-6.31,3.29,3.29,0,0,1,3.32,3.15A3.43,3.43,0,0,1,387.06,510.91Z" transform="translate(-119.14 -353.48)"/><path class="cls-2" d="M231.63,504.6a3.31,3.31,0,0,1,3.5,3.18,3.4,3.4,0,0,1-3.38,3.13,3.45,3.45,0,0,1-3.6-3.11A3.31,3.31,0,0,1,231.63,504.6Z" transform="translate(-119.14 -353.48)"/><path class="cls-2" d="M228.2,511.69a4.13,4.13,0,0,1-3.62-4.58c.19-2.65,2.48-4.28,5.16-4.09-.92,1.19-2.62,2.48-2.93,4.05S227.72,510.28,228.2,511.69Z" transform="translate(-119.14 -353.48)"/><path class="cls-2" d="M388.46,503.07c3.22-.24,5.5,1.36,5.71,4a4.28,4.28,0,0,1-4.17,4.66C392.8,508.94,393.64,506,388.46,503.07Z" transform="translate(-119.14 -353.48)"/><path d="M362.13,473.37c-3.38.8-6.48,1.47-9.52,2.32a2.52,2.52,0,0,0-1.37,1.59c-3.2,11.31-6.23,22.68-9.55,34-1.29,4.37-4.35,6.23-8.83,6.23h-47c-4.46,0-7.54-1.89-8.82-6.24-3.31-11.29-6.34-22.65-9.54-34a2.4,2.4,0,0,0-1.18-1.54c-3.12-.85-6.28-1.53-9.66-2.33.89,3.17,1.73,6.13,2.56,9.08a9.44,9.44,0,0,1,.3,1.38c.29,2.5-.34,3.44-2.81,3.24a76.43,76.43,0,0,1-9-1.49c-7.09-1.5-14.15-3.1-21.22-4.66-.2,0-.39-.12-.59-.17-5-1.3-5.41-1.89-4.94-7,.2-2.22.27-4.46.41-6.69s.91-2.77,3-2.34c7.76,1.58,15.5,3.21,23.25,4.78,6.11,1.24,12.22,2.42,18.33,3.6a4.25,4.25,0,0,0,1.59,0c2.34-.46,4.67-1.4,7-1.41q34.58-.17,69.15,0c2.47,0,4.93,1,7.4,1.43a5.4,5.4,0,0,0,2-.08q20.19-4,40.39-8.1c3.09-.63,3.65-.26,3.8,2.8.14,2.77.18,5.56.5,8.31.28,2.39-.88,3.57-2.94,4.1-3.2.83-6.43,1.59-9.67,2.31-6.6,1.48-13.22,2.91-19.83,4.37a5.35,5.35,0,0,1-.79.19c-5.58.57-6.25-.44-5-5.17C360.4,479.11,361.24,476.41,362.13,473.37Zm-.62,7.35c4.65-1,9.05-2,13.45-3a1.83,1.83,0,0,0,.93-.7c3.27-4.5,7.35-7.85,12.85-9.28-5.43.78-10.33,2.55-13.83,7.08-.39.51-.86,1.17-1.4,1.31-2.87.73-5.78,1.31-8.8,2,1.08-2.35,2-3.07,6.53-5.14C367,472.69,362.17,476.42,361.51,480.72ZM230,467.72a45.44,45.44,0,0,1,5.16,2.2c1.63.94,3.46,1.95,4.47,3.43,2.58,3.81,6.23,5.26,10.52,5.8,1.2.15,2.37.55,3.56.8s2.3.45,3.54.68c-.71-4.24-5.55-7.95-10-7.69,2.9,1,5.42,2.19,7,5.18-2.92-.65-5.51-1.14-8-1.84a4.84,4.84,0,0,1-2.37-1.54C240.31,470.23,235.42,468.48,230,467.72Zm25.73,16.2.1-.7-.92-.19c-6.51-1.21-13-2.3-19.53-3.69s-8-3.27-8.86-9.81c0-.06-.15-.1-.23-.15-1.81,3.73.63,9.39,5,10.64a140.22,140.22,0,0,0,15,3.32A82.21,82.21,0,0,0,255.73,483.92Zm136.62-14.74c-.93,6.66-2.48,8.53-8.45,10.08-2.62.67-5.27,1.22-7.93,1.71-4.34.8-8.7,1.51-13.05,2.26a3.4,3.4,0,0,0,2.1.57,47.66,47.66,0,0,0,7.29-.44,146.61,146.61,0,0,0,16-3.71C392.18,478.43,394.17,472.74,392.35,469.18Z" transform="translate(-119.14 -353.48)"/><path class="cls-2" d="M361.51,480.72c.66-4.3,5.51-8,9.73-7.79-4.51,2.07-5.45,2.79-6.53,5.14,3-.67,5.93-1.25,8.8-2,.54-.14,1-.8,1.4-1.31,3.5-4.53,8.4-6.3,13.83-7.08-5.5,1.43-9.58,4.78-12.85,9.28a1.83,1.83,0,0,1-.93.7C370.56,478.7,366.16,479.68,361.51,480.72Z" transform="translate(-119.14 -353.48)"/><path class="cls-2" d="M230,467.72c5.42.76,10.31,2.51,13.85,7a4.84,4.84,0,0,0,2.37,1.54c2.53.7,5.12,1.19,8,1.84-1.63-3-4.15-4.16-7-5.18,4.49-.26,9.33,3.45,10,7.69-1.24-.23-2.39-.44-3.54-.68s-2.36-.65-3.56-.8c-4.29-.54-7.94-2-10.52-5.8-1-1.48-2.84-2.49-4.47-3.43A45.44,45.44,0,0,0,230,467.72Z" transform="translate(-119.14 -353.48)"/><path class="cls-2" d="M255.73,483.92a82.21,82.21,0,0,1-9.44-.58,140.22,140.22,0,0,1-15-3.32c-4.35-1.25-6.79-6.91-5-10.64.08.05.22.09.23.15.87,6.54,2.43,8.44,8.86,9.81s13,2.48,19.53,3.69l.92.19Z" transform="translate(-119.14 -353.48)"/><path class="cls-2" d="M392.35,469.18c1.82,3.56-.17,9.25-4.08,10.47a146.61,146.61,0,0,1-16,3.71,47.66,47.66,0,0,1-7.29.44,3.4,3.4,0,0,1-2.1-.57c4.35-.75,8.71-1.46,13.05-2.26,2.66-.49,5.31-1,7.93-1.71C389.87,477.71,391.42,475.84,392.35,469.18Z" transform="translate(-119.14 -353.48)"/></svg>