<svg id="Livello_1" data-name="Livello 1" xmlns="http://www.w3.org/2000/svg" viewBox="0 0 850.53 213.2"><defs><style>.cls-1,.cls-2{fill:#fff;}.cls-1{stroke:#fff;stroke-miterlimit:10;stroke-width:0.76px;}.cls-3{fill:#182028;}.cls-4{fill:#121d20;}.cls-5{fill:#131f25;}.cls-6{fill:#f0f2f1;}.cls-7{fill:#010811;}.cls-8{fill:#639ebc;}.cls-9{fill:#c5dae6;}.cls-10{fill:#0e1f27;}.cls-11{fill:#f8f9f9;}.cls-12{fill:#39647c;}.cls-13{fill:#c2d7e2;}.cls-14{fill:#12222c;}.cls-15{fill:#0d1e22;}.cls-16{fill:#81b042;}.cls-17{fill:#ddb586;}.cls-18{fill:#65943f;}.cls-19{fill:#bd8c4b;}.cls-20{fill:#181f17;}.cls-21{fill:#171c15;}.cls-22{fill:#0d1f15;}.cls-23{fill:#112415;}.cls-24{fill:#39647d;}.cls-25{fill:#0c1c27;}.cls-26{fill:#6f551e;}.cls-27{fill:#35723d;}.cls-28{fill:#37783f;}.cls-29{fill:#24582e;}</style></defs><title>bottone escursioni</title><path class="cls-1" d="M514.7,104.34h35a88.74,88.74,0,0,1,88.74,88.74V865.37a88.74,88.74,0,0,1-88.74,88.74h-35A88.75,88.75,0,0,1,426,865.37V193.09a88.75,88.75,0,0,1,88.75-88.75Z" transform="translate(954.5 -425.58) rotate(90)"/><rect x="7.97" y="7.97" width="834.6" height="197.27" rx="78.74"/><path class="cls-2" d="M477.87,506.08h19.2v6.4H484.91v11.84h9.66v6.4h-9.66v13.76h12.16v6.4h-19.2Z" transform="translate(-106.91 -422.63)"/><path class="cls-2" d="M507.44,528l-7.75-21.89h7.43l4.73,14.47H512l4.87-14.47h6.65L515.76,528l8.13,22.91h-7.43l-5.12-15.61h-.13L506,550.88h-6.66Z" transform="translate(-106.91 -422.63)"/><path class="cls-2" d="M527.21,506.08h10.37q5.25,0,7.87,2.82t2.63,8.25v4.42q0,5.45-2.63,8.26t-7.87,2.81h-3.33v18.24h-7Zm10.37,20.16a3.3,3.3,0,0,0,2.59-1A4.84,4.84,0,0,0,541,522v-5.31a4.85,4.85,0,0,0-.87-3.27,3.3,3.3,0,0,0-2.59-1h-3.33v13.76Z" transform="translate(-106.91 -422.63)"/><path class="cls-2" d="M551.92,506.08h7v38.4h11.58v6.4H551.92Z" transform="translate(-106.91 -422.63)"/><path class="cls-2" d="M575.92,548.58c-1.84-2-2.76-4.74-2.76-8.32V516.71q0-5.39,2.76-8.32c1.83-2,4.48-2.95,7.93-2.95s6.1,1,7.94,2.95,2.75,4.73,2.75,8.32v23.55c0,3.58-.92,6.36-2.75,8.32s-4.48,2.94-7.94,2.94S577.75,550.54,575.92,548.58Zm11.58-7.87V516.26q0-4.43-3.65-4.42t-3.65,4.42v24.45q0,4.41,3.65,4.41T587.5,540.71Z" transform="translate(-106.91 -422.63)"/><path class="cls-2" d="M599.28,506.08h10.43c3.62,0,6.27.84,7.93,2.53s2.5,4.28,2.5,7.78v2.75q0,7-4.61,8.83v.13a5.52,5.52,0,0,1,3.62,3.13,15.88,15.88,0,0,1,1.05,6.34v7.87c0,1.28,0,2.32.13,3.11a7.94,7.94,0,0,0,.64,2.33H613.8a11,11,0,0,1-.51-2,32,32,0,0,1-.13-3.45v-8.19q0-3.08-1-4.29a4.19,4.19,0,0,0-3.42-1.22h-2.43v19.2h-7Zm9.6,19.2a4.19,4.19,0,0,0,3.16-1.09,5.09,5.09,0,0,0,1.06-3.64v-3.46a5.74,5.74,0,0,0-.86-3.52,3.27,3.27,0,0,0-2.72-1.09h-3.2v12.8Z" transform="translate(-106.91 -422.63)"/><path class="cls-2" d="M625.07,506.08h19.2v6.4H632.11v11.84h9.66v6.4h-9.66v13.76h12.16v6.4h-19.2Z" transform="translate(-106.91 -422.63)"/><path class="cls-2" d="M658.54,506.08h19.2v6.4H665.58v11.84h9.66v6.4h-9.66v13.76h12.16v6.4h-19.2Z" transform="translate(-106.91 -422.63)"/><path class="cls-2" d="M688.11,528l-7.75-21.89h7.43l4.73,14.47h.13l4.86-14.47h6.66L696.43,528l8.12,22.91h-7.42L692,535.27h-.13l-5.25,15.61H680Z" transform="translate(-106.91 -422.63)"/><path class="cls-2" d="M709.07,548.64c-1.78-1.92-2.66-4.63-2.66-8.13V516.45c0-3.5.88-6.21,2.66-8.13s4.34-2.88,7.71-2.88,5.94,1,7.71,2.88,2.66,4.63,2.66,8.13v4.74h-6.66V516q0-4.15-3.52-4.16T713.45,516v25q0,4.1,3.52,4.09t3.52-4.09v-6.85h6.66v6.33q0,5.25-2.66,8.13t-7.71,2.88Q711.72,551.52,709.07,548.64Z" transform="translate(-106.91 -422.63)"/><path class="cls-2" d="M733.8,548.61c-1.79-1.94-2.69-4.73-2.69-8.35V506.08h7v34.69a4.87,4.87,0,0,0,.93,3.33,4,4,0,0,0,5.31,0,4.87,4.87,0,0,0,.93-3.33V506.08h6.79v34.18c0,3.62-.9,6.41-2.69,8.35s-4.4,2.91-7.81,2.91S735.59,550.55,733.8,548.61Z" transform="translate(-106.91 -422.63)"/><path class="cls-2" d="M757.1,506.08h10.43c3.63,0,6.27.84,7.94,2.53s2.49,4.28,2.49,7.78v2.75q0,7-4.61,8.83v.13a5.52,5.52,0,0,1,3.62,3.13,15.88,15.88,0,0,1,1,6.34v7.87c0,1.28.05,2.32.13,3.11a7.94,7.94,0,0,0,.64,2.33h-7.17a11,11,0,0,1-.51-2,32.76,32.76,0,0,1-.12-3.45v-8.19c0-2.05-.34-3.48-1-4.29a4.19,4.19,0,0,0-3.42-1.22h-2.43v19.2h-7Zm9.6,19.2a4.23,4.23,0,0,0,3.17-1.09,5.14,5.14,0,0,0,1-3.64v-3.46a5.74,5.74,0,0,0-.86-3.52,3.27,3.27,0,0,0-2.72-1.09h-3.2v12.8Z" transform="translate(-106.91 -422.63)"/><path class="cls-2" d="M784.3,548.61c-1.75-1.94-2.63-4.73-2.63-8.35V537.7h6.66v3.07q0,4.35,3.65,4.35a3.45,3.45,0,0,0,2.72-1,5.21,5.21,0,0,0,.93-3.43,9.52,9.52,0,0,0-1.28-5,24.07,24.07,0,0,0-4.74-5.15,28.32,28.32,0,0,1-6.08-6.94,14.2,14.2,0,0,1-1.73-7q0-5.31,2.69-8.23t7.81-2.91q5.06,0,7.64,2.91c1.73,1.95,2.6,4.73,2.6,8.36v1.85h-6.66v-2.3a5.12,5.12,0,0,0-.9-3.36,3.22,3.22,0,0,0-2.62-1.06q-3.52,0-3.52,4.29a8.47,8.47,0,0,0,1.31,4.54,25.18,25.18,0,0,0,4.77,5.12,26.45,26.45,0,0,1,6.08,7,15.46,15.46,0,0,1,1.67,7.36q0,5.5-2.73,8.45t-7.9,2.94Q786.93,551.52,784.3,548.61Z" transform="translate(-106.91 -422.63)"/><path class="cls-2" d="M806.7,506.08h7v44.8h-7Z" transform="translate(-106.91 -422.63)"/><path class="cls-2" d="M821.22,548.58c-1.83-2-2.75-4.74-2.75-8.32V516.71q0-5.39,2.75-8.32c1.84-2,4.48-2.95,7.94-2.95s6.1,1,7.94,2.95,2.75,4.73,2.75,8.32v23.55c0,3.58-.92,6.36-2.75,8.32s-4.48,2.94-7.94,2.94S823.06,550.54,821.22,548.58Zm11.59-7.87V516.26q0-4.43-3.65-4.42t-3.65,4.42v24.45q0,4.41,3.65,4.41T832.81,540.71Z" transform="translate(-106.91 -422.63)"/><path class="cls-2" d="M844.58,506.08h8.84l6.84,26.82h.13V506.08h6.27v44.8h-7.23L851,518.18h-.12v32.7h-6.28Z" transform="translate(-106.91 -422.63)"/><path class="cls-2" d="M873.32,548.61c-1.75-1.94-2.63-4.73-2.63-8.35V537.7h6.66v3.07q0,4.35,3.65,4.35a3.45,3.45,0,0,0,2.72-1,5.15,5.15,0,0,0,.93-3.43,9.52,9.52,0,0,0-1.28-5,24.07,24.07,0,0,0-4.74-5.15,28.32,28.32,0,0,1-6.08-6.94,14.2,14.2,0,0,1-1.73-7q0-5.31,2.69-8.23t7.81-2.91q5.05,0,7.65,2.91c1.72,1.95,2.59,4.73,2.59,8.36v1.85H884.9v-2.3a5.18,5.18,0,0,0-.89-3.36,3.25,3.25,0,0,0-2.63-1.06c-2.34,0-3.52,1.43-3.52,4.29a8.47,8.47,0,0,0,1.31,4.54,25.18,25.18,0,0,0,4.77,5.12,26.26,26.26,0,0,1,6.08,7,15.46,15.46,0,0,1,1.67,7.36q0,5.5-2.72,8.45c-1.82,2-4.45,2.94-7.91,2.94S875.07,550.55,873.32,548.61Z" transform="translate(-106.91 -422.63)"/><path class="cls-3" d="M174.09,593.57c3-5.28,5.8-10.62,8.88-15.82q29-48.9,58.11-97.73c.91-1.52,1.9-3,3.15-5l17.62,30,42.6-70.41c7.2,11.78,14.1,23.09,21,34.38q9,14.73,18.14,29.44L346.8,504l-2.39,0c-.37-.94-.75-1.89-1.13-2.83L341,497.79c-1.86-3.16-3.56-6.43-5.63-9.45a39.38,39.38,0,0,0-4.61-4.81l-2.32-3.4q-8.25-13.62-16.5-27.23c-2.39-3.94-4.8-7.86-7.38-12.07l-1.1,1.7q-5.34,8.78-10.69,17.55l-.41.69c-3,4.81-6,9.62-9,14.46A2.59,2.59,0,0,0,283,477c.91,3.3,1.93,6.56,3,10.16l5.07-5.89c-.09,1.12-.19,2.25-.28,3.37l-.55.56c-.77.95-1.54,1.9-2.3,2.86-.19.18-.37.37-.56.56l-.56.58c-.77-.76-1.85-1.39-2.23-2.31-.78-1.9-1.07-4-1.82-5.93-.31-.8-1.26-1.84-2-1.87a3.26,3.26,0,0,0-2.41,1.49c-1.7,3-3.15,6.13-4.7,9.21-2.48,3.75-5,7.45-7.4,11.28a25.64,25.64,0,0,0-1.72,4.66l-3.45,3.48-1.51-.61-1.46-2.86-1.37,5.44c-2.77-3.41-5-6.13-7.37-9.1-.77,1.66-1.36,2.92-1.94,4.18-.68,1.47-1.66,1.95-3.11,1-.94-2.3-1.88-4.61-3.08-7.53-2.1,2.8-3.62,5-5.3,7a26.43,26.43,0,0,1-3,2.68l-1.9-3.2c-.18-.3-.35-.6-.67-1.16-1,1.59-2,3-2.86,4.44C219.45,523,211.27,536.43,203.22,550c-9,15.15-17.88,30.38-26.81,45.58v-4.13Zm70.62-111.68c-.65.49-1.52.84-1.92,1.48-2.74,4.41-5.2,9-8.14,13.28-2.09,3.05-2.09,6-.91,9.53l7.1-9.42,2.69,3.32,2.23,3.86,3.09-7.23,6.54,8.71.84-.16c0-1.51.56-3.35-.09-4.49C252.49,494.39,248.55,488.17,244.71,481.89Z" transform="translate(-106.91 -422.63)"/><path class="cls-4" d="M325,615.29c-3.49.06-7,.16-10.48.17q-24.4,0-48.81,0c-.94,0-1.87-.11-2.81-.17l-.61,0H216.12l-30.74,0-1.17,0a10,10,0,0,1-9.11-5.19l2.83-.56,1.3,1h-.06l1.11.67,0,0,2,1.1.81.06,1.7.08,5.16,0c.76.35,1.52,1,2.27,1q32.78.07,65.54,0c.76,0,1.53-.64,2.29-1l2.16-.15,2.38-1.15,0,0a44.66,44.66,0,0,1,4.73-2c.56-.18,1.36.42,2,.67l-.21.06-.59.45v0l-.68.54,0,0-2.25,1.45c.73.42,1.45,1.19,2.18,1.2q13.06.12,26.14,0a9.21,9.21,0,0,0,2.84-1H300c1.89,1.51,3.78,1.31,5.68,0l5.72,0,.66.45,2.76-.06,4.48.08.61-.43,4.54-.22c.58-.13,1.17-.23,1.74-.39s1.21-.41,1.81-.62l4.49,1.18c.75.36,1.49,1,2.24,1q26.82.09,53.62,0c.76,0,1.51-.66,2.27-1l21.62-.18,14.87.09,1.18,2.56-3.43.36-5.76,0h-6.78l-8,0c-.65.05-1.31.17-2,.17H329.87c-.66,0-1.31-.1-2-.16Z" transform="translate(-106.91 -422.63)"/><path class="cls-5" d="M385.38,509.2Q396,527,406.64,544.78q14.14,23.79,28.25,47.61c4.16,7,2.77,16.71-3,20.79l-.28-.25.51-3.65a11.9,11.9,0,0,0-1.7-1.77c-5.11-3.56-10.3-7-15.37-10.63-7.06-5-14-10.19-21-15.3l1.24-1.78a13.91,13.91,0,0,1,2.82,1.2c10.36,7.34,20.67,14.75,31,22.11,1.34,1,2.81,1.74,4.88,3-.22-4.54.61-8.23-1.6-11.94-12.77-21.4-25.35-42.93-38.07-64.38-4.93-8.31-10.07-16.5-15.11-24.74v-1c1,.62,2,1.2,3,1.87s1.58,1.25,2.36,1.88l-.17.16.18-.14Z" transform="translate(-106.91 -422.63)"/><path class="cls-3" d="M384.55,507.82c-.78-.63-1.53-1.31-2.36-1.88s-2-1.25-3-1.87l-2-.08c-.08-1.18.25-2.6-.29-3.5-3.67-6.15-7.53-12.2-11.32-18.28-.91-1.87-1.34-.36-1.73.3-2.88,4.87-5.55,9.88-8.64,14.62-1.85,2.83-2.59,5.49-1.09,8.6l-.14.15-1.78,0,0,0-1.86-1.09-.08,2.75-.15.19.42.81,0,1.2-2.16,2.24-.6-1.06-.52-2.92v-3.46l3-4.45q6.15-10.55,12.3-21.09c.65-1.11,1.37-2.18,2.49-3.93Z" transform="translate(-106.91 -422.63)"/><path class="cls-3" d="M177.93,609.51l-2.83.56-2.25-6.25.24-.57.28-4.23.56,1.19.82-.55-1.85-2.1c.28-1,.56-2,.83-2.94l.48,2.12,2.08-.89c-.63,3.63-1.21,7.25.79,10.83l3.64-2.5c0,.45.05.91.08,1.36l.09,1.8h0Z" transform="translate(-106.91 -422.63)"/><path class="cls-6" d="M350.29,500.16l-3,4.45-.47-.58-3.18-5.56c.84.07,2.23-.12,2.41.27C347,500.81,348.55,500.68,350.29,500.16Z" transform="translate(-106.91 -422.63)"/><path class="cls-4" d="M176.29,595.85l-2.08.89-.48-2.12.36-1,2.32-2.16v4.13A.28.28,0,0,1,176.29,595.85Z" transform="translate(-106.91 -422.63)"/><path class="cls-5" d="M428.25,614.93l-1.18-2.56,2.22-.82c-.08.58-.17,1.16-.3,2l2.62-.6.28.25-2.56,1.36-.55.13Z" transform="translate(-106.91 -422.63)"/><path class="cls-7" d="M404.25,615.29l8,0Z" transform="translate(-106.91 -422.63)"/><path class="cls-4" d="M172.9,597.56l1.85,2.1-.82.55-.56-1.19Z" transform="translate(-106.91 -422.63)"/><path class="cls-7" d="M254.31,615.32h0Z" transform="translate(-106.91 -422.63)"/><path class="cls-7" d="M419.06,615.31l5.76,0Z" transform="translate(-106.91 -422.63)"/><path class="cls-7" d="M216.12,615.31h0Z" transform="translate(-106.91 -422.63)"/><path class="cls-7" d="M325,615.29h0Z" transform="translate(-106.91 -422.63)"/><path class="cls-3" d="M385.38,509.2l-.82-1.36Z" transform="translate(-106.91 -422.63)"/><path class="cls-7" d="M184.21,615.26l1.17,0Z" transform="translate(-106.91 -422.63)"/><path class="cls-4" d="M428.78,614.67l.55-.13Z" transform="translate(-106.91 -422.63)"/><path class="cls-7" d="M262.3,615.31l.61,0Z" transform="translate(-106.91 -422.63)"/><path class="cls-4" d="M173.09,603.25l-.24.57Z" transform="translate(-106.91 -422.63)"/><path class="cls-8" d="M176.29,595.85a.28.28,0,0,0,.12-.31c8.93-15.2,17.81-30.43,26.81-45.58,8.05-13.53,16.23-27,24.36-40.46.87-1.45,1.83-2.85,2.86-4.44.32.56.49.86.67,1.16l1.9,3.2a26.43,26.43,0,0,0,3-2.68c1.68-2,3.2-4.19,5.3-7,1.2,2.92,2.14,5.23,3.08,7.53-.1,4.64-.28,9.27-.27,13.9,0,3.87.21,7.74.34,11.61-.51,1-.93,2.07-1.53,3-6.07,9.58-12.21,19.12-18.25,28.72-3.11,4.94-5.91,10.12-10.92,13.53l-8.55,6.84,0,0-.65.58,0-.06-1.13.71-22.78,18.07-3.64,2.5C175.08,603.1,175.66,599.48,176.29,595.85Z" transform="translate(-106.91 -422.63)"/><path class="cls-9" d="M303.45,442.53l1.1-1.7c2.58,4.21,5,8.13,7.38,12.07q8.26,13.61,16.5,27.23l-2.77,6.12-11.2-15c-2,4.52-3.67,8.19-5.44,12.15l-2.14-2.35-3.52-4.94c.22-3.1.53-6.2.63-9.31q.33-10.87.44-21.76A7.46,7.46,0,0,0,303.45,442.53Z" transform="translate(-106.91 -422.63)"/><path class="cls-10" d="M213.75,578.06c5-3.41,7.81-8.59,10.92-13.53,6-9.6,12.18-19.14,18.25-28.72a32.78,32.78,0,0,0,1.52-3,4.69,4.69,0,0,0,1.05-.92q7.09-11.6,14.14-23.23l1.51.61,3.45-3.48.12.11c-7.57,12.36-15.1,24.74-22.74,37.06-4.47,7.2-9.12,14.29-13.69,21.43l.34.6a7.92,7.92,0,0,0,1.82-.75c5-3.65,10.09-7.29,15.07-11q14.43-10.85,28.78-21.77c-.2,1.14-.4,2.27-.59,3.41a7.59,7.59,0,0,0-6.25,5l-.54.69-.58.63h-1.07c-1.56,0-3,.14-3,2.21l-1.15,1.12c-1.47.12-2.88.3-2.86,2.28l-1.12.59-.58.56-.57.55-1.62,1.37a2.76,2.76,0,0,1-.06.4l-.63.53,0,0-.73.57c-2.07,1.49-4.18,2.92-6.19,4.47Q232.39,567,218,578.22H213.9Z" transform="translate(-106.91 -422.63)"/><path class="cls-11" d="M303.45,442.53a7.46,7.46,0,0,1,1,2.55q-.1,10.89-.44,21.76c-.1,3.11-.41,6.21-.63,9.31L301.45,474l-2.31-2.75-3.3,4.21-4.76,5.83h0L286,487.2c-1.08-3.6-2.1-6.86-3-10.16a2.59,2.59,0,0,1,.39-1.81c3-4.84,6-9.65,9-14.46l.9,1.29.58-.45-1.07-1.53Q298.12,451.31,303.45,442.53Z" transform="translate(-106.91 -422.63)"/><path class="cls-12" d="M259.63,508.64q-7.06,11.63-14.14,23.23a4.69,4.69,0,0,1-1.05.92c-.12-3.87-.33-7.74-.33-11.61,0-4.63.17-9.26.27-13.9,1.45,1,2.43.49,3.11-1,.58-1.26,1.17-2.52,1.94-4.18,2.4,3,4.6,5.69,7.37,9.1l1.37-5.44Z" transform="translate(-106.91 -422.63)"/><path class="cls-6" d="M243.53,500.08l-2.69-3.32-7.1,9.42c-1.18-3.56-1.18-6.48.91-9.53,2.94-4.28,5.4-8.87,8.14-13.28.4-.64,1.27-1,1.92-1.48,0,3.31.08,6.63-.12,9.93C244.43,494.58,243.9,497.33,243.53,500.08Z" transform="translate(-106.91 -422.63)"/><path class="cls-13" d="M243.53,500.08c.37-2.75.9-5.5,1.06-8.26.2-3.3.09-6.62.12-9.93,3.84,6.28,7.78,12.5,11.43,18.88.65,1.14.09,3,.09,4.49l-.84.16-6.54-8.71-3.09,7.23Z" transform="translate(-106.91 -422.63)"/><path class="cls-14" d="M306.88,481.09l2.14,2.35c1.77-4,3.41-7.63,5.44-12.15l11.2,15,2.77-6.12c.78,1.13,1.55,2.27,2.32,3.4l-.05,0c-.55.21-1.39.27-1.6.66-.57,1.07-.78,2.33-1.31,3.42a22.08,22.08,0,0,1-1.8,2.65,21.61,21.61,0,0,1-2.29-2.3c-2.87-3.86-5.67-7.78-8.75-12-1.06,2.48-1.81,4.52-2.8,6.43-.82,1.59-1.92,3-2.89,4.54-1.37-1.5-2.75-3-4.1-4.49-.12-.13-.11-.36-.16-.54Z" transform="translate(-106.91 -422.63)"/><path class="cls-14" d="M273.71,489.83c1.55-3.08,3-6.21,4.7-9.21a3.26,3.26,0,0,1,2.41-1.49c.7,0,1.65,1.07,2,1.87.75,1.92,1,4,1.82,5.93.38.92,1.46,1.55,2.23,2.31l.16.15c-.51.58-1,1.16-2.08,2.37-1.35-4.5-2.49-8.27-3.81-12.67-1.22,2-2,3.44-2.88,4.76-1.41,2.06-2.91,4.06-4.37,6.09Z" transform="translate(-106.91 -422.63)"/><path class="cls-14" d="M330.75,483.53a39.38,39.38,0,0,1,4.61,4.81c2.07,3,3.77,6.29,5.63,9.45-.19.4-.39.79-.58,1.19l-9.71-15.41Z" transform="translate(-106.91 -422.63)"/><path class="cls-10" d="M264.59,505.77a25.64,25.64,0,0,1,1.72-4.66c2.35-3.83,4.92-7.53,7.4-11.28l.14.11a6.17,6.17,0,0,1-.44,1.87c-2.86,4.71-5.79,9.38-8.7,14.07Z" transform="translate(-106.91 -422.63)"/><path class="cls-15" d="M346.8,504l.47.58c0,1.15,0,2.3,0,3.46l-1.26,0-2.4-4,.79-.07Z" transform="translate(-106.91 -422.63)"/><path class="cls-15" d="M340.41,499c.19-.4.39-.79.58-1.19l2.29,3.44-1.18.57Z" transform="translate(-106.91 -422.63)"/><path class="cls-14" d="M342.1,501.8l1.18-.57c.38.94.76,1.89,1.13,2.83l-.78.07Z" transform="translate(-106.91 -422.63)"/><path class="cls-14" d="M290.8,484.68c.09-1.12.19-2.25.28-3.37h0l2.15.59-2.34,2.86Z" transform="translate(-106.91 -422.63)"/><path class="cls-14" d="M288,488.1c.76-1,1.53-1.91,2.3-2.86l.08.1-2.3,2.83Z" transform="translate(-106.91 -422.63)"/><path class="cls-6" d="M292.76,460.08l1.07,1.53-.58.45-.9-1.29Z" transform="translate(-106.91 -422.63)"/><path class="cls-14" d="M286.83,489.24l.56-.58.1.12-.5.61Z" transform="translate(-106.91 -422.63)"/><path class="cls-14" d="M287.39,488.66c.19-.19.37-.38.56-.56l.08.07-.54.61Z" transform="translate(-106.91 -422.63)"/><path class="cls-14" d="M290.25,485.24l.55-.56.09.07-.56.59Z" transform="translate(-106.91 -422.63)"/><path class="cls-16" d="M254.34,550.26a2.76,2.76,0,0,0,.06-.4l.89-.24.73-.57h0l4-2.91v.05l.62-.56h0c.42,1.21.83,2.43,1.25,3.64-1.47,4.18-3,8.33-4.34,12.56-.38,1.22-.05,2.66-.05,4l.64,0-3.41,7.87h7.06c.2,2.27.4,4.55.63,7.07h3.49V573.7h7.6l-4.53-8.25,2.36-.72c-2.09-5.73-4.1-11.22-6.11-16.72l-1.71-4.66.91-.6,2-1.56.58-.63c2.91.08,4.6-1.53,5.63-4h0l2.88-2.24h0l1.07-.8,16-11.7,1.11,1.73,3.47,4h0l1.61,4.45h.07l-.58.64,0,0-.61.61,0,0-.61.6,0,0-.66.61L288,539c-2.08-1.37-2.89-.58-2.84,1.67h0c-1.79-.17-3.34,0-3.32,2.36l-.05-.06-.6.59,0,0-.73,1,0,0c-.7.85-1.41,1.69-2.12,2.53a.35.35,0,0,1-.13.36l-.47.62h0c-2.24,1.7-2.52,3.58-.57,5.69v.23c.18,2.1.27,4.26,3,4.79,3.78,3,7.52,6,11.37,9,3.18,2.39,6.62,4.45,9.74,6.93,4,3.19,4.08,6.15.31,9.72a50.71,50.71,0,0,1-5.35,4.23q-15.84,11.36-31.73,22.64l0,0-2.38,1.15-2.16.15c-2.85,0-5.7-.13-8.54-.13l-61.56.11-5.16,0-1.7-.08-.81-.06-2-1.1,0,0-1.11-.67h.06c.55-1.06,1.1-2.13,1.66-3.19h0l10.18-8.07h0l1.94-1.63a.41.41,0,0,0,.33-.22l2.11-1.62c.85-.57,1.75-1.09,2.54-1.74,4-3.3,8.06-6.63,12.08-9.95l0-.05,2.7-1.85,0,0,.63-.59v.06l4.6-3.48Q232.41,567,246.83,555.8c2-1.55,4.12-3,6.19-4.47l.73-.57,0,0Zm-15,53.55,3.67.69v-8h7.53c-1.55-3.31-2.85-6.08-4.18-8.9l2.32-.78-7.07-19.28h-.85c-2.17,6.1-4.38,12.19-6.43,18.33-.16.5.78,1.37,1.36,2.33l-4.11,8a10,10,0,0,0,2.67.83c4.66.11,4-.38,4.17,4.29A8.79,8.79,0,0,0,239.34,603.81Z" transform="translate(-106.91 -422.63)"/><path class="cls-16" d="M412.2,612.28l-21.62.18-58.13,0L328,611.26c1.24-3.19,2.57-6.36,3.7-9.59,1.78-5.1,3.57-10.2,5.09-15.38,1.43-4.89-.11-9-4.23-12-2.07-1.51-4.21-2.91-6.37-4.29-7.57-4.86-15.21-9.62-22.73-14.57-2.91-1.92-4.34-4.72-3.41-8.35l.57-.8,0,0,.57-.63v0l.69-1.08-.05.06,1.06-.71h0l1.8-1.61,2.25-1.75,1.86-1.55.61-.54.58-.52a22.12,22.12,0,0,0,2.57-2.55c2.08-2.82,2.08-5.2.18-7.59l-1.2-1.7v.06l-.61-.61,0,0-.6-.6,0,0-.62-.58h0l-3.49-2.79h0L304,519.9l-.47-.49a3.24,3.24,0,0,1-.58-1c-.16-.86-.2-1.75-.29-2.62a12.67,12.67,0,0,1,2.57.45,18.28,18.28,0,0,1,2.67,1.54v0l3.37,2.38,0,0,1.82,1.6,3.27,2.29,1.26.63h0l5.76,3.95,1.84,1.63.51,1.15c-1.71-.43-2.51.4-3.16,1.92-1.36,3.19-3.11,6.21-4.33,9.44-.5,1.35-2.25,3.37.59,4.44l-2.13,5.28.49.36,5.67.15c0,1.08.09,2.16.15,3.44l3.27-.22V553l5.11-.11.47-.38-2.21-5.32,2.19-.71c-.46-1-.86-1.9-1.21-2.77-1.66-4.1-3.29-8.2-4.94-12.3l.58,0a.61.61,0,0,0,.42.12l3.42,2.37,0-.07.65.57,0,0,.64.56h0l1.11.67,0-.06.62.63,24.31,17.62,6.46,4.57v0l4,3a.64.64,0,0,0,.15.42c-2,5.55-4,11.1-6,16.69l2.4.73c-1.19,2.93-2.32,5.74-3.64,9h7.07q.92,4.63,1.84,9.24h3.9v-8.89l3.41-.4h3.4c2.57,2,5.08,4.16,7.73,6.1,5.1,3.73,10.33,7.29,15.41,11C406.45,607.41,409.28,609.9,412.2,612.28Z" transform="translate(-106.91 -422.63)"/><path class="cls-17" d="M311.36,612.45l-5.72,0-5.68,0H268.47l1.41-1.65,0,0,.68-.54v0l.6-.45.21-.06c6-4.25,12.12-8.45,18.11-12.78,5.07-3.66,10.25-7.2,14.95-11.29,4.1-3.58,4.12-8.11.34-12-2.49-2.55-5.54-4.55-8.4-6.73-4.43-3.38-9.25-6.34-13.28-10.15s-3.56-7.45.77-11.12a63.17,63.17,0,0,1,6.57-4.46c2.85-1.86,6-3.38,8.55-5.56,4.59-3.87,4.48-6.11.17-10.17-.42-.39-.84-.78-1.23-1.19-3.38-3.58-3-5.35,1.54-7.53-.09,3.44,2.4,5.18,4.61,7.1a13.35,13.35,0,0,0,.73,2.66c1.88,3.6,1.64,6.11-1.24,8.93-1.82,1.77-3.9,3.28-5.79,5-2.57,2.34-5.53,4.45-7.48,7.24-2.43,3.51-.34,8.94,4.49,12,5.18,3.29,10.74,6,16,9.19a146.85,146.85,0,0,1,12.86,8.67c2.84,2.16,3.39,5.48,2.15,8.77-1.59,4.25-3.49,8.37-5.23,12.56-1.92,4.61-3.81,9.23-5.71,13.85l-2.76.06Z" transform="translate(-106.91 -422.63)"/><path class="cls-18" d="M412.2,612.28c-2.92-2.38-5.75-4.87-8.77-7.11-5.08-3.76-10.31-7.32-15.41-11-2.65-1.94-5.16-4.06-7.73-6.1l2.25-.5-4.35-9.22,2.08-1.1c-.59-2.31-1.13-4.38-1.66-6.45.79.47,1.63.89,2.37,1.42,4.36,3.12,8.69,6.27,13,9.41,7,5.11,14,10.27,21,15.3,5.07,3.62,10.26,7.07,15.37,10.63a11.9,11.9,0,0,1,1.7,1.77l-2.83,2.27-2.22.82Z" transform="translate(-106.91 -422.63)"/><path class="cls-19" d="M314.78,612.84c1.9-4.62,3.79-9.24,5.71-13.85,1.74-4.19,3.64-8.31,5.23-12.56,1.24-3.29.69-6.61-2.15-8.77A146.85,146.85,0,0,0,310.71,569c-5.24-3.19-10.8-5.9-16-9.19-4.83-3.08-6.92-8.51-4.49-12,1.95-2.79,4.91-4.9,7.48-7.24,1.89-1.72,4-3.23,5.79-5,2.88-2.82,3.12-5.33,1.24-8.93A13.35,13.35,0,0,1,304,524c3.25,2.07,7.05,3.7,6.7,8.57-.19.38-.39.75-.59,1.12-.75,1-1.51,2-2.26,2.92l-.54.65-.52.49L302.17,541l-.64.54,0,0-.62.57v0l-1,.74-.05,0-.72,1,0,0-.58.62v0c-2.73,1.19-2.12,3.55-2,5.73l.29,1.25.65,1.71v0l.53.67,0,0,.57.62-.05,0,.69,1.17a46.34,46.34,0,0,0,5.31,4.63c7.33,4.71,14.8,9.2,22.18,13.84,7.93,5,8.46,6.45,5.83,15.26a2.76,2.76,0,0,1-.08.27l-8.14,22.74-4.54.22-.61.43Z" transform="translate(-106.91 -422.63)"/><path class="cls-20" d="M310.72,532.52c.35-4.87-3.45-6.5-6.7-8.57-2.21-1.92-4.7-3.66-4.61-7.1-4.58,2.18-4.92,3.95-1.54,7.53.39.41.81.8,1.23,1.19,4.31,4.06,4.42,6.3-.17,10.17-2.58,2.18-5.7,3.7-8.55,5.56a63.17,63.17,0,0,0-6.57,4.46c-4.33,3.67-4.83,7.27-.77,11.12s8.85,6.77,13.28,10.15c2.86,2.18,5.91,4.18,8.4,6.73,3.78,3.89,3.76,8.42-.34,12-4.7,4.09-9.88,7.63-14.95,11.29-6,4.33-12.07,8.53-18.11,12.78-.68-.25-1.48-.85-2-.67a44.66,44.66,0,0,0-4.73,2q15.87-11.31,31.73-22.64a50.71,50.71,0,0,0,5.35-4.23c3.77-3.57,3.72-6.53-.31-9.72-3.12-2.48-6.56-4.54-9.74-6.93-3.85-2.91-7.59-6-11.37-9l-3-4.79v-.23l.57-5.69h0c.16-.2.32-.41.47-.62a.35.35,0,0,0,.13-.36c.71-.84,1.42-1.68,2.12-2.53l0,0c.25-.32.49-.65.73-1l0,0,.6-.59.05.06,3.32-2.36h0L288,539l8.37-4.72.66-.61,0,0,.61-.6,0,0,.61-.61,0,0c.2-.21.39-.43.58-.64h-.07l3.07-1.47-4.68-3h0q-1.14-2-2.27-4a31.82,31.82,0,0,1-.33-3.62c0-.74.2-1.9.66-2.11,1.91-.9,3.95-1.52,5.94-2.24.17,1.7-.56,4,2.43,3.93l.47.49,2.25,1.83h0c0,2.41,1.38,3,3.49,2.79h0l.62.58,0,0,.6.6,0,0,.61.61v-.06l1.2,1.7c.12,1.19.25,2.37.38,3.56l-.55,1.13h0l-1.66,0Z" transform="translate(-106.91 -422.63)"/><path class="cls-21" d="M297,551.42c-.1-.42-.19-.83-.29-1.25l2-5.73v0l.57-.62,0,0,.72-1,.05,0,1-.74v0l.62-.58,0,0,.68.12,1.15.6-.56,1.72h0l-1.06.71,0-.06c-.23.36-.46.72-.68,1.08v0l-.57.63,0,0-.57.8c-.93,3.63.5,6.43,3.41,8.35,7.52,5,15.16,9.71,22.73,14.57,2.16,1.38,4.3,2.78,6.37,4.29,4.12,3,5.66,7.11,4.23,12-1.52,5.18-3.31,10.28-5.09,15.38-1.13,3.23-2.46,6.4-3.7,9.59-.6.21-1.2.44-1.81.62s-1.16.26-1.74.39l8.14-22.74a2.76,2.76,0,0,0,.08-.27c2.63-8.81,2.1-10.27-5.83-15.26-7.38-4.64-14.85-9.13-22.18-13.84a46.34,46.34,0,0,1-5.31-4.63l-.69-1.17.05,0-.57-.62,0,0-.53-.67v0C297.42,552.56,297.2,552,297,551.42Z" transform="translate(-106.91 -422.63)"/><path class="cls-22" d="M189.93,612.46l61.56-.11c2.84,0,5.69.09,8.54.13-.76.35-1.53,1-2.29,1q-32.78.07-65.54,0C191.45,613.47,190.69,612.81,189.93,612.46Z" transform="translate(-106.91 -422.63)"/><path class="cls-22" d="M332.45,612.44l58.13,0c-.76.35-1.51,1-2.27,1q-26.81.09-53.62,0C333.94,613.47,333.2,612.8,332.45,612.44Z" transform="translate(-106.91 -422.63)"/><path class="cls-21" d="M269.88,610.81l-1.41,1.65h30.32a9.21,9.21,0,0,1-2.84,1q-13.06.12-26.14,0c-.73,0-1.45-.78-2.18-1.2Z" transform="translate(-106.91 -422.63)"/><path class="cls-21" d="M300,612.47l5.68,0C303.74,613.78,301.85,614,300,612.47Z" transform="translate(-106.91 -422.63)"/><path class="cls-23" d="M180.89,607.33c-.56,1.06-1.11,2.13-1.66,3.19l-1.3-1Z" transform="translate(-106.91 -422.63)"/><path class="cls-20" d="M262.19,612.33l2.38-1.15Z" transform="translate(-106.91 -422.63)"/><path class="cls-23" d="M180.26,611.18l2,1.1Z" transform="translate(-106.91 -422.63)"/><path class="cls-23" d="M183.07,612.34l1.7.08Z" transform="translate(-106.91 -422.63)"/><path class="cls-23" d="M179.17,610.53l1.11.67Z" transform="translate(-106.91 -422.63)"/><path class="cls-20" d="M271.11,609.89l-.6.45Z" transform="translate(-106.91 -422.63)"/><path class="cls-20" d="M270.52,610.3l-.68.54Z" transform="translate(-106.91 -422.63)"/><path class="cls-21" d="M311.36,612.45l.66.45Z" transform="translate(-106.91 -422.63)"/><path class="cls-21" d="M319.26,612.92l.61-.43Z" transform="translate(-106.91 -422.63)"/><path class="cls-24" d="M379.19,505.05c5,8.24,10.18,16.43,15.11,24.74,12.72,21.45,25.3,43,38.07,64.38,2.21,3.71,1.38,7.4,1.6,11.94-2.07-1.26-3.54-2-4.88-3-10.35-7.36-20.66-14.77-31-22.11a13.91,13.91,0,0,0-2.82-1.2l0,0-1.74-1.7h0a60.52,60.52,0,0,1-4-5.08c-3.32-5.19-6.51-10.47-9.72-15.72q-7.42-12.12-14.81-24.26c0-2,0-4,0-5.93q.12-10.44.25-20.88a21.13,21.13,0,0,0,2.89-3c1.13-1.76,2-2.2,3.26-.17s2.64,3.93,4.06,5.83c1,1.35,1.89,1,2.47-.44C378.35,507.33,378.76,506.18,379.19,505.05Z" transform="translate(-106.91 -422.63)"/><path class="cls-14" d="M379.19,505.05c-.43,1.13-.84,2.28-1.29,3.4-.58,1.46-1.46,1.79-2.47.44-1.42-1.9-2.8-3.83-4.06-5.83s-2.13-1.59-3.26.17a21.13,21.13,0,0,1-2.89,3c-1.26-2-2.53-4.05-3.93-6.31-1.94,2.57-3.61,4.81-5.29,7l-1.33-.09-.57-.55a1.86,1.86,0,0,0-.09-.47l.14-.15c2.27-2.88,4.55-5.75,7-8.84l4.32,5.23a.79.79,0,0,0,.18.22c.05,0,.2,0,.22,0,1.15-1.73,2.29-3.47,3.68-5.61l6.84,9.22c.34-.81.58-1.38.83-2l2,.08C379.18,504.4,379.19,504.72,379.19,505.05Z" transform="translate(-106.91 -422.63)"/><path class="cls-22" d="M394,581.58c-4.34-3.14-8.67-6.29-13-9.41-.74-.53-1.58-.95-2.37-1.42l0,0-1.08-.52-.1-.08c.23-1,.45-1.92.68-2.88l.48.06c1.59,3.07,3.92,5,7.72,4.82l-.63,1.9,7.78,4.06h0l1.74,1.7,0,0C394.84,580.39,394.43,581,394,581.58Z" transform="translate(-106.91 -422.63)"/><path class="cls-4" d="M429.29,611.55l2.83-2.27-.51,3.65-2.62.6C429.12,612.71,429.21,612.13,429.29,611.55Z" transform="translate(-106.91 -422.63)"/><path class="cls-12" d="M378.61,567.35l-.48-.06c-2.2-4.18-4.39-8.36-6.92-13.16l-2.39,4.29-6.18-4.15-1-.66c-.35-.32-.67-.67-1-1q-16.45-11.91-32.92-23.81c-6.52-4.7-13.09-9.33-19.64-14l-3.58-2.38-.39-31.28,1,.69,0,0c.05.18,0,.41.16.54,1.35,1.5,2.73,3,4.1,4.49,1-1.51,2.07-2.95,2.89-4.54,1-1.91,1.74-4,2.8-6.43,3.08,4.24,5.88,8.16,8.75,12a21.61,21.61,0,0,0,2.29,2.3,22.08,22.08,0,0,0,1.8-2.65c.53-1.09.74-2.35,1.31-3.42.21-.39,1-.45,1.6-.66L340.41,499l1.69,2.82,1.53,2.33,2.39,4c.6,1,1.19,1.92,1.78,2.88l.6,1.06c2.08,3.5,4.09,7,6.24,10.48q13.56,21.79,27.16,43.57a17.42,17.42,0,0,1,1.18,3.07l-.57.31Z" transform="translate(-106.91 -422.63)"/><path class="cls-8" d="M356,507c1.68-2.23,3.35-4.47,5.29-7,1.4,2.26,2.67,4.28,3.93,6.31q-.12,10.44-.25,20.88c0,2,0,4,0,5.93l-14.37-23.26c0-.4,0-.8,0-1.2l-.42-.81.15-.19,1.94-1.66,0,0,.36,2.14,1.63,1,.44-.39.56-.62Z" transform="translate(-106.91 -422.63)"/><path class="cls-25" d="M350.56,509.81l14.37,23.26q7.4,12.13,14.81,24.26c3.21,5.25,6.4,10.53,9.72,15.72a60.52,60.52,0,0,0,4,5.08l-7.78-4.06.63-1.9c-3.8.16-6.13-1.75-7.72-4.82l3.8,2.13.57-.31a17.42,17.42,0,0,0-1.18-3.07q-13.55-21.81-27.16-43.57c-2.15-3.45-4.16-7-6.24-10.48Z" transform="translate(-106.91 -422.63)"/><path class="cls-6" d="M365.47,502.12l-4.32-5.23c-2.45,3.09-4.73,6-7,8.84-1.5-3.11-.76-5.77,1.09-8.6,3.09-4.74,5.76-9.75,8.64-14.62.39-.66.82-2.17,1.73-.3Q365.54,492.17,365.47,502.12Z" transform="translate(-106.91 -422.63)"/><path class="cls-13" d="M365.47,502.12q.06-9.94.14-19.91c3.79,6.08,7.65,12.13,11.32,18.28.54.9.21,2.32.29,3.5l-.83,2-6.84-9.22c-1.39,2.14-2.53,3.88-3.68,5.61,0,0-.17,0-.22,0A.79.79,0,0,1,365.47,502.12Z" transform="translate(-106.91 -422.63)"/><path class="cls-25" d="M354.66,508.69l-.44.39-1.63-1-.36-2.14,1.78,0a1.86,1.86,0,0,1,.09.47l.57.55L356,507l-.78,1.07Z" transform="translate(-106.91 -422.63)"/><path class="cls-25" d="M352.27,506l-1.94,1.66c0-.92.05-1.83.08-2.75Z" transform="translate(-106.91 -422.63)"/><path class="cls-14" d="M347.8,511c-.59-1-1.18-1.92-1.78-2.88l1.26,0C347.45,509,347.63,510,347.8,511Z" transform="translate(-106.91 -422.63)"/><path class="cls-25" d="M350.18,507.8l.42.81Z" transform="translate(-106.91 -422.63)"/><path class="cls-4" d="M210.07,584.11c-4,3.32-8,6.65-12.08,9.95-.79.65-1.69,1.17-2.54,1.74l-1.93-.36-.18,2a.41.41,0,0,1-.33.22l-1.94,1.63h0c-1.43.73-2.91,1.36-4.27,2.21-2.05,1.28-4,2.7-6,4.06,0-.45-.05-.91-.08-1.36l22.78-18.07,1.13-.71,0,.06.64-.58,0,0Z" transform="translate(-106.91 -422.63)"/><path class="cls-23" d="M180.8,605.54c2-1.36,3.95-2.78,6-4.06,1.36-.85,2.84-1.48,4.27-2.21l-10.18,8.07Z" transform="translate(-106.91 -422.63)"/><path class="cls-10" d="M210.07,584.11l-4.87.79,8.55-6.84.15.15c-.18,1.16-.35,2.32-.52,3.49v-.06l-.63.59,0,0c-1.31,0-2.95-.45-2.7,1.85Z" transform="translate(-106.91 -422.63)"/><path class="cls-10" d="M204.63,585.4l-1.13.71Z" transform="translate(-106.91 -422.63)"/><path class="cls-10" d="M205.23,584.88l-.64.58Z" transform="translate(-106.91 -422.63)"/><path class="cls-3" d="M306.88,481.09l-1.88.83,0,0c.12-1.7-.57-2.74-2.37-2.85l-.45-.58L301,476.79l.06,0-.63-.7a.35.35,0,0,1-.29-.32l1-1.36a2.93,2.93,0,0,0,.37-.42l1.91,2.14Z" transform="translate(-106.91 -422.63)"/><path class="cls-8" d="M300.1,475.79a.37.37,0,0,0,.3.32l.63.7-.06,0,1.24,1.67.45.58c.47.72.93,1.44,1.39,2.16l.39,31.28c-2.1.39-4.59.19-6.23,1.28-5.88,3.93-11.48,8.29-17.18,12.5l-6.74,5.16q-14.39,10.89-28.78,21.77c-5,3.74-10,7.38-15.07,11a7.92,7.92,0,0,1-1.82.75l-.34-.6c4.57-7.14,9.22-14.23,13.69-21.43,7.64-12.32,15.17-24.7,22.74-37.06,2.91-4.69,5.84-9.36,8.7-14.07a6.17,6.17,0,0,0,.44-1.87c1.46-2,3-4,4.37-6.09.9-1.32,1.66-2.73,2.88-4.76,1.32,4.4,2.46,8.17,3.81,12.67,1-1.21,1.57-1.79,2.08-2.37l.5-.61.54-.61,2.3-2.83.56-.59,2.34-2.86.48-.52c1.39-1.51,2.71-3.08,4.18-4.5A8.12,8.12,0,0,1,300.1,475.79Z" transform="translate(-106.91 -422.63)"/><path class="cls-23" d="M274.29,531.42l6.74-5.16c.87,0,2,.39,2.59,0,2.32-1.49,4.49-3.21,6.7-4.87.89-.67,1.73-1.46,2.25.32l-.07.07-16,11.7-1.07.8h0l-1.64.64-.08-.09C273.89,533.69,274.09,532.56,274.29,531.42Z" transform="translate(-106.91 -422.63)"/><path class="cls-4" d="M213.38,581.7c.17-1.17.34-2.33.52-3.49H218Z" transform="translate(-106.91 -422.63)"/><path class="cls-23" d="M267.45,539.87a7.59,7.59,0,0,1,6.25-5l.08.09c-.41.54-.83,1.07-1.24,1.6h0Z" transform="translate(-106.91 -422.63)"/><path class="cls-16" d="M267.45,539.87l5.09-3.36c-1,2.52-2.72,4.13-5.63,4Z" transform="translate(-106.91 -422.63)"/><path class="cls-23" d="M264.35,542.75l-.91.6-.83.35-.31-.31c0-2.07,1.4-2.24,3-2.21Z" transform="translate(-106.91 -422.63)"/><path class="cls-23" d="M258.29,546.79c0-2,1.39-2.16,2.86-2.28l.13.15-.72,1h0l-.62.56v-.05l-1.6.73Z" transform="translate(-106.91 -422.63)"/><path class="cls-16" d="M264.35,542.75l.91-1.57h1.07Z" transform="translate(-106.91 -422.63)"/><path class="cls-23" d="M255.29,549.62l-.89.24,1.62-1.37.07.08a4.15,4.15,0,0,0-.11.48h0Z" transform="translate(-106.91 -422.63)"/><path class="cls-23" d="M261.15,544.51l1.15-1.12.31.31-1.33,1Z" transform="translate(-106.91 -422.63)"/><path class="cls-23" d="M257.17,547.38l1.12-.59.08.08-1,.7Z" transform="translate(-106.91 -422.63)"/><path class="cls-23" d="M256.59,547.94l.58-.56.17.19-.6.52Z" transform="translate(-106.91 -422.63)"/><path class="cls-16" d="M253.75,550.76l-.73.57Z" transform="translate(-106.91 -422.63)"/><path class="cls-16" d="M254.34,550.26l-.63.53Z" transform="translate(-106.91 -422.63)"/><path class="cls-23" d="M256,548.49l.57-.55.15.15-.65.48Z" transform="translate(-106.91 -422.63)"/><path class="cls-3" d="M295.84,475.47l3.3-4.21,2.31,2.75a2.93,2.93,0,0,1-.37.42L296,475.62Z" transform="translate(-106.91 -422.63)"/><path class="cls-3" d="M293.71,481.37l-.48.52-2.15-.59,4.76-5.83.16.15Q294.86,478.5,293.71,481.37Z" transform="translate(-106.91 -422.63)"/><path class="cls-23" d="M231.57,596.1l4.12-8c-.58-1-1.52-1.83-1.36-2.33,2-6.14,4.26-12.23,6.43-18.33h.85l7.07,19.28-2.32.78c1.33,2.82,2.63,5.59,4.18,8.9H239.45Zm10-21.74-.76,0c-1.15,3.07-2.31,6.14-3.45,9.21-.09.25-.16.73,0,.8,2.93,1.9.46,3.67-.12,5.46-.37,1.12-.83,2.22-1.32,3.54H246.2c-.95-1.93-1.72-3.54-2.54-5.13-.92-1.79-1.34-3.42,1.16-4.07Z" transform="translate(-106.91 -422.63)"/><path class="cls-22" d="M265.15,548c2,5.5,4,11,6.11,16.72l-2.36.72,4.53,8.25h-7.6l-4.12,0h-7.06l3.41-7.87-.64,0c0-1.34-.33-2.78.05-4,1.32-4.23,2.87-8.38,4.34-12.56.53-1,1.07-2,1.72-3.24Zm-.51,5.65-1-2.48-3.73,10.93c3,3.44-1.37,5.88-.84,9.13h9.75c0-3.27-5.2-5.51-.89-9.37Z" transform="translate(-106.91 -422.63)"/><path class="cls-26" d="M239.45,596.46H243v8l-3.67-.69Q239.4,600.14,239.45,596.46Z" transform="translate(-106.91 -422.63)"/><path class="cls-26" d="M261.71,573.75l4.12,0v7.12h-3.49C262.11,578.3,261.91,576,261.71,573.75Z" transform="translate(-106.91 -422.63)"/><path class="cls-16" d="M239.45,596.46q0,3.67-.11,7.35a8.79,8.79,0,0,1-.92-2.58c-.13-4.67.49-4.18-4.17-4.29a10.22,10.22,0,0,1-2.68-.83Z" transform="translate(-106.91 -422.63)"/><path class="cls-16" d="M265.15,548l-1.62-2c-.65,1.23-1.19,2.23-1.72,3.24-.42-1.21-.83-2.43-1.25-3.64l.72-1,1.33-1,.83-.35Z" transform="translate(-106.91 -422.63)"/><path class="cls-23" d="M297.07,527.46l4.68,3-3.07,1.47C298.14,530.42,297.61,528.94,297.07,527.46Z" transform="translate(-106.91 -422.63)"/><path class="cls-23" d="M294.81,523.45q1.13,2,2.27,4l-3.47-4,.1-.1Z" transform="translate(-106.91 -422.63)"/><path class="cls-16" d="M277.8,548l-.57,5.69C275.28,551.59,275.56,549.71,277.8,548Z" transform="translate(-106.91 -422.63)"/><path class="cls-16" d="M277.23,553.93l3,4.79C277.5,558.19,277.41,556,277.23,553.93Z" transform="translate(-106.91 -422.63)"/><path class="cls-16" d="M288,539l-2.84,1.67C285.15,538.39,286,537.6,288,539Z" transform="translate(-106.91 -422.63)"/><path class="cls-16" d="M256.09,548.57l.65-.48.6-.52,1-.7,1.6-.73-4,2.91A2.73,2.73,0,0,1,256.09,548.57Z" transform="translate(-106.91 -422.63)"/><path class="cls-16" d="M285.19,540.63,281.87,543C281.85,540.62,283.4,540.46,285.19,540.63Z" transform="translate(-106.91 -422.63)"/><path class="cls-4" d="M210.09,584.06c-.25-2.3,1.39-1.83,2.7-1.85Z" transform="translate(-106.91 -422.63)"/><path class="cls-16" d="M272.54,536.52c.41-.53.83-1.06,1.24-1.6l1.64-.64Z" transform="translate(-106.91 -422.63)"/><path class="cls-23" d="M193.34,597.42l.18-2,1.93.36Z" transform="translate(-106.91 -422.63)"/><path class="cls-16" d="M280.48,544.51c-.7.85-1.41,1.69-2.12,2.53C279.07,546.2,279.78,545.36,280.48,544.51Z" transform="translate(-106.91 -422.63)"/><path class="cls-23" d="M191.07,599.27l1.94-1.63Z" transform="translate(-106.91 -422.63)"/><path class="cls-23" d="M293.61,523.51l-1.11-1.73.07-.07,1.14,1.7Z" transform="translate(-106.91 -422.63)"/><path class="cls-16" d="M281.26,543.49c-.24.32-.48.65-.73,1C280.78,544.14,281,543.81,281.26,543.49Z" transform="translate(-106.91 -422.63)"/><path class="cls-16" d="M275.44,534.28l1.07-.8Z" transform="translate(-106.91 -422.63)"/><path class="cls-16" d="M260,546.19l.62-.56Z" transform="translate(-106.91 -422.63)"/><path class="cls-23" d="M298.21,532.51l-.61.61Z" transform="translate(-106.91 -422.63)"/><path class="cls-23" d="M297.64,533.08l-.61.6Z" transform="translate(-106.91 -422.63)"/><path class="cls-23" d="M297.07,533.64l-.66.61Z" transform="translate(-106.91 -422.63)"/><path class="cls-23" d="M298.75,531.91c-.19.21-.38.43-.58.64C298.37,532.34,298.56,532.12,298.75,531.91Z" transform="translate(-106.91 -422.63)"/><path class="cls-4" d="M212.75,582.23l.63-.59Z" transform="translate(-106.91 -422.63)"/><path class="cls-16" d="M281.82,542.93l-.6.59Z" transform="translate(-106.91 -422.63)"/><path class="cls-16" d="M255.29,549.62l.73-.57Z" transform="translate(-106.91 -422.63)"/><path class="cls-16" d="M278.23,547.4c-.15.21-.31.42-.47.62Z" transform="translate(-106.91 -422.63)"/><path class="cls-22" d="M378.61,570.75c.53,2.07,1.07,4.14,1.66,6.45l-2.08,1.1,4.35,9.22-2.25.5h-3.4L373.5,588l-5.76.11h-7.07c1.32-3.26,2.45-6.07,3.64-9l-2.4-.73c2-5.59,4-11.14,6-16.69h2.25l-4.52,13.84,2.18.86-3.12,9.16H378.6l-4.1-9.34,2.41-1-1.66-5,2.2,0,.1.08,1.08.52Z" transform="translate(-106.91 -422.63)"/><path class="cls-15" d="M308,514.86c6.55,4.66,13.12,9.29,19.64,14q16.48,11.86,32.92,23.81c.37.28.69.63,1,1l-4.34.12L333,536.11l-.62-.63,0,.06-1.11-.67h0l-.64-.56,0,0-.65-.57,0,.07c0-2.44-1.63-2.52-3.42-2.37a.61.61,0,0,1-.42-.12l-1.05-1.07-1.84-1.63c-1-2.65-2.8-4.14-5.76-3.95h0l-1.26-.63L313,521.8c.61-1.92-.82-1.51-1.82-1.6l0,0c-.39-1.84-1.61-2.49-3.37-2.38v0c-.36-.79-.73-1.57-1.09-2.35Z" transform="translate(-106.91 -422.63)"/><path class="cls-23" d="M331.28,552.91l-5.11.11-3.42,0-5.67-.15-.49-.36,2.13-5.28c-2.84-1.07-1.09-3.09-.59-4.44,1.22-3.23,3-6.25,4.33-9.44.65-1.52,1.45-2.35,3.16-1.92l0,0c1.65,4.1,3.28,8.2,4.94,12.3.35.87.75,1.72,1.21,2.77l-2.19.71,2.21,5.32Zm-6.88-2.21c3.54.13,3.45.14,2.71-3.28a8.76,8.76,0,0,1,.46-3l.78-.15c-1.26-2.23-2.51-4.47-3.77-6.71l-.38-1.72c-1.26,2.77-2.35,5.08-3.32,7.43A3.37,3.37,0,0,0,321,545c.13.73.62,1.52.46,2.15a19.9,19.9,0,0,1-1.55,3.29,4.69,4.69,0,0,0,1.06.3C322.12,550.75,323.26,550.72,324.4,550.7Z" transform="translate(-106.91 -422.63)"/><path class="cls-15" d="M370.12,561.64h-2.25a.64.64,0,0,1-.15-.42c.18-3-1.8-3.13-4-3v0a7.53,7.53,0,0,1-1.26-1.93,6.12,6.12,0,0,1,.16-2.1l6.18,4.15,2.39-4.29c2.53,4.8,4.72,9,6.92,13.16-.23,1-.45,1.92-.68,2.88l-2.2,0c0-.36-.05-.73-.08-1.09-.19-4-1.64-7.48-4.1-11.47-.22,1.32-.31,1.84-.4,2.35v0l-.54,1.31A.7.7,0,0,1,370.12,561.64Z" transform="translate(-106.91 -422.63)"/><path class="cls-26" d="M367.74,588.07l5.76-.11a2.36,2.36,0,0,0,0,.46v8.89h-3.9Q368.65,592.71,367.74,588.07Z" transform="translate(-106.91 -422.63)"/><path class="cls-21" d="M313,531.44c-.13-1.19-.26-2.37-.38-3.56,1.9,2.39,1.9,4.77-.18,7.59a22.12,22.12,0,0,1-2.57,2.55,2.14,2.14,0,0,0-.28-.32l-1.76-1.14c.75-1,1.51-1.94,2.26-2.92l.12.1.43,1.55.64,0,1.16-2.73h0Z" transform="translate(-106.91 -422.63)"/><path class="cls-21" d="M306.79,515.47c.36.78.73,1.56,1.09,2.35a18.28,18.28,0,0,0-2.67-1.54,12.67,12.67,0,0,0-2.57-.45c.09.87.13,1.76.29,2.62a3.24,3.24,0,0,0,.58,1c-3,0-2.26-2.23-2.43-3.93,1.09-2.21,2.49-2.46,4.28-.72A5.17,5.17,0,0,0,306.79,515.47Z" transform="translate(-106.91 -422.63)"/><path class="cls-26" d="M322.75,553.05l3.42,0v3.25l-3.27.22C322.84,555.21,322.79,554.13,322.75,553.05Z" transform="translate(-106.91 -422.63)"/><path class="cls-22" d="M362.64,554.27a6.12,6.12,0,0,0-.16,2.1,7.53,7.53,0,0,0,1.26,1.93l-6.46-4.57,4.34-.12Z" transform="translate(-106.91 -422.63)"/><path class="cls-22" d="M317.51,524.73c3-.19,4.76,1.3,5.76,3.95Z" transform="translate(-106.91 -422.63)"/><path class="cls-22" d="M363.73,558.28c2.19-.18,4.17-.08,4,3Z" transform="translate(-106.91 -422.63)"/><path class="cls-21" d="M309.71,524.52c-2.11.26-3.5-.38-3.49-2.79Z" transform="translate(-106.91 -422.63)"/><path class="cls-22" d="M326.58,531.5c1.79-.15,3.42-.07,3.42,2.37Z" transform="translate(-106.91 -422.63)"/><path class="cls-21" d="M307.87,517.8c1.76-.11,3,.54,3.37,2.38Z" transform="translate(-106.91 -422.63)"/><path class="cls-21" d="M311.2,520.2c1,.09,2.43-.32,1.82,1.6Z" transform="translate(-106.91 -422.63)"/><path class="cls-21" d="M306.23,521.73,304,519.9Z" transform="translate(-106.91 -422.63)"/><path class="cls-23" d="M306.86,540.63l-2.25,1.75-.13-.14,2.28-1.72Z" transform="translate(-106.91 -422.63)"/><path class="cls-21" d="M308.73,539.08c-.63.51-1.25,1-1.87,1.55l-.1-.11,1.73-1.69Z" transform="translate(-106.91 -422.63)"/><path class="cls-18" d="M373.48,588.42a2.36,2.36,0,0,1,0-.46l3.39.06Z" transform="translate(-106.91 -422.63)"/><path class="cls-21" d="M312.66,527.88l-1.2-1.7Z" transform="translate(-106.91 -422.63)"/><path class="cls-23" d="M302.81,544c.18-.58.37-1.15.56-1.72l1.11,0,.13.14Z" transform="translate(-106.91 -422.63)"/><path class="cls-22" d="M325.11,530.31l1.05,1.07-.58,0,0,0Z" transform="translate(-106.91 -422.63)"/><path class="cls-22" d="M316.29,524.09l1.26.63Z" transform="translate(-106.91 -422.63)"/><path class="cls-23" d="M301.75,544.69l1.06-.71Z" transform="translate(-106.91 -422.63)"/><path class="cls-23" d="M301.11,545.71c.22-.36.45-.72.68-1.08C301.57,545,301.34,545.35,301.11,545.71Z" transform="translate(-106.91 -422.63)"/><path class="cls-18" d="M378.05,588h0Z" transform="translate(-106.91 -422.63)"/><path class="cls-22" d="M331.27,534.87l1.11.67Z" transform="translate(-106.91 -422.63)"/><path class="cls-21" d="M309.33,538.54l-.61.54-.23-.25.57-.56Z" transform="translate(-106.91 -422.63)"/><path class="cls-21" d="M309.91,538l-.58.52-.27-.27.57-.57A2.14,2.14,0,0,1,309.91,538Z" transform="translate(-106.91 -422.63)"/><path class="cls-23" d="M300.55,546.32l.57-.63Z" transform="translate(-106.91 -422.63)"/><path class="cls-22" d="M332.35,535.48l.62.63Z" transform="translate(-106.91 -422.63)"/><path class="cls-21" d="M310.3,525.09l-.62-.58Z" transform="translate(-106.91 -422.63)"/><path class="cls-21" d="M310.88,525.66l-.6-.6Z" transform="translate(-106.91 -422.63)"/><path class="cls-26" d="M331.28,552.91l.47-.38Z" transform="translate(-106.91 -422.63)"/><path class="cls-21" d="M311.45,526.24l-.61-.61Z" transform="translate(-106.91 -422.63)"/><path class="cls-22" d="M330,533.8l.65.57Z" transform="translate(-106.91 -422.63)"/><path class="cls-26" d="M316.59,552.54l.49.36Z" transform="translate(-106.91 -422.63)"/><path class="cls-23" d="M300,547.08l.57-.8Z" transform="translate(-106.91 -422.63)"/><path class="cls-22" d="M330.65,534.32l.64.56Z" transform="translate(-106.91 -422.63)"/><path class="cls-4" d="M309.63,537.7l-.57.57-.57.56-1.73,1.69-2.28,1.72-1.11,0-1.15-.6-.05-.66,4.64-3.31.52-.49.54-.65Z" transform="translate(-106.91 -422.63)"/><path class="cls-23" d="M298.7,544.44l-2,5.73C296.58,548,296,545.63,298.7,544.44Z" transform="translate(-106.91 -422.63)"/><path class="cls-23" d="M297,551.42c.22.57.44,1.14.65,1.71C297.42,552.56,297.2,552,297,551.42Z" transform="translate(-106.91 -422.63)"/><path class="cls-23" d="M301,542.1l-1,.74Z" transform="translate(-106.91 -422.63)"/><path class="cls-23" d="M300,542.89l-.72,1Z" transform="translate(-106.91 -422.63)"/><path class="cls-23" d="M298.62,554.36l.69,1.17Z" transform="translate(-106.91 -422.63)"/><path class="cls-21" d="M310.13,533.64c.2-.37.4-.74.59-1.12l.1.1-.57,1.12Z" transform="translate(-106.91 -422.63)"/><path class="cls-23" d="M299.27,543.85l-.57.62Z" transform="translate(-106.91 -422.63)"/><path class="cls-21" d="M307.33,537.21l-.52.49Z" transform="translate(-106.91 -422.63)"/><path class="cls-23" d="M298.1,553.76l.57.62Z" transform="translate(-106.91 -422.63)"/><path class="cls-23" d="M297.62,553.11l.53.67Z" transform="translate(-106.91 -422.63)"/><path class="cls-23" d="M302.17,541l.05.66-.68-.12Z" transform="translate(-106.91 -422.63)"/><path class="cls-23" d="M301.57,541.57l-.62.58Z" transform="translate(-106.91 -422.63)"/><path class="cls-10" d="M306.79,515.47a5.17,5.17,0,0,1-1.43-.71c-1.79-1.74-3.19-1.49-4.28.72-2,.72-4,1.34-5.94,2.24-.46.21-.64,1.37-.66,2.11a31.82,31.82,0,0,0,.33,3.62l-1.1,0-1.14-1.7c-.52-1.78-1.36-1-2.25-.32-2.21,1.66-4.38,3.38-6.7,4.87-.62.39-1.72,0-2.59,0,5.7-4.21,11.3-8.57,17.18-12.5,1.64-1.09,4.13-.89,6.23-1.28l3.58,2.38Z" transform="translate(-106.91 -422.63)"/><path class="cls-4" d="M310.25,533.74l.57-1.12,1.66,0c-.39.91-.78,1.82-1.16,2.73l-.64,0Z" transform="translate(-106.91 -422.63)"/><path class="cls-4" d="M313,531.44l-.55,1.13Z" transform="translate(-106.91 -422.63)"/><path class="cls-25" d="M395.22,579.82l-1.74-1.7Z" transform="translate(-106.91 -422.63)"/><path class="cls-3" d="M354.67,506.9l-.57-.55Z" transform="translate(-106.91 -422.63)"/><path class="cls-18" d="M378.63,570.77l-1.08-.52Z" transform="translate(-106.91 -422.63)"/><path class="cls-14" d="M304.05,481.2c-.46-.72-.92-1.44-1.39-2.16,1.8.11,2.49,1.15,2.37,2.85Z" transform="translate(-106.91 -422.63)"/><path class="cls-14" d="M352.59,508.05l1.63,1Z" transform="translate(-106.91 -422.63)"/><path class="cls-14" d="M354.66,508.69l.56-.63Z" transform="translate(-106.91 -422.63)"/><path class="cls-14" d="M293.71,481.37q1.16-2.87,2.29-5.75l5.08-1.19-1,1.36a8,8,0,0,0-2.22,1.08C296.42,478.29,295.1,479.86,293.71,481.37Z" transform="translate(-106.91 -422.63)"/><path class="cls-14" d="M302.21,478.46,301,476.79Z" transform="translate(-106.91 -422.63)"/><path class="cls-14" d="M301,476.81l-.63-.7Z" transform="translate(-106.91 -422.63)"/><path class="cls-27" d="M241.61,574.36l3.21,9.79c-2.5.65-2.08,2.28-1.16,4.07.82,1.59,1.59,3.2,2.54,5.13H235.92c.49-1.32,1-2.42,1.32-3.54.58-1.79,3-3.56.12-5.46-.12-.07-.05-.55,0-.8,1.14-3.07,2.3-6.14,3.45-9.21Z" transform="translate(-106.91 -422.63)"/><path class="cls-28" d="M265.12,571.24h-6c-.53-3.25,3.84-5.69.84-9.13l3.73-10.93c.46,1.18.71,1.83,1,2.48-.15.23-.43.46-.42.68C264.5,560,264.81,565.61,265.12,571.24Z" transform="translate(-106.91 -422.63)"/><path class="cls-29" d="M265.12,571.24c-.31-5.63-.62-11.26-.9-16.9,0-.22.27-.45.42-.68l3.32,8.21c-4.31,3.86.94,6.1.89,9.37Z" transform="translate(-106.91 -422.63)"/><path class="cls-28" d="M370.12,561.64a.7.7,0,0,0,0-.38l.54-1.31v0l1.14,1.62.44.63.08,1.11a16.75,16.75,0,0,0-.54,2.93c-.06,6.41-.05,12.82-.06,19.22h-7.07l3.12-9.16-2.18-.86Z" transform="translate(-106.91 -422.63)"/><path class="cls-29" d="M371.73,585.5c0-6.4,0-12.81.06-19.22a16.75,16.75,0,0,1,.54-2.93l2.84,5.76c0,.36.05.73.08,1.09l1.66,5-2.41,1,4.1,9.34Z" transform="translate(-106.91 -422.63)"/><path class="cls-28" d="M324.4,550.7c-1.14,0-2.28,0-3.41,0a4.69,4.69,0,0,1-1.06-.3,19.9,19.9,0,0,0,1.55-3.29c.16-.63-.33-1.42-.46-2.15a3.37,3.37,0,0,1-.14-1.7c1-2.35,2.06-4.66,3.32-7.43.19.87.28,1.3.38,1.72Z" transform="translate(-106.91 -422.63)"/><path class="cls-29" d="M324.4,550.7l.18-13.1c1.26,2.24,2.51,4.48,3.77,6.71l-.78.15a8.76,8.76,0,0,0-.46,3C327.85,550.84,327.94,550.83,324.4,550.7Z" transform="translate(-106.91 -422.63)"/><path class="cls-22" d="M375.17,569.11l-2.84-5.76c0-.37-.05-.74-.08-1.11l-.44-.63L370.67,560c.09-.51.18-1,.4-2.35C373.53,561.63,375,565.13,375.17,569.11Z" transform="translate(-106.91 -422.63)"/><path class="cls-22" d="M370.68,560l-.54,1.31Z" transform="translate(-106.91 -422.63)"/><path class="cls-29" d="M371.81,561.61l.44.63Z" transform="translate(-106.91 -422.63)"/></svg>