<svg id="Livello_1" data-name="Livello 1" xmlns="http://www.w3.org/2000/svg" viewBox="0 0 1003.11 270.77"><title>testi</title><path d="M72.21,309.87H82.58q5.25,0,7.87,2.82c1.75,1.87,2.63,4.63,2.63,8.25v4.42c0,3.62-.88,6.38-2.63,8.25s-4.37,2.82-7.87,2.82H79.25v18.24h-7ZM82.58,330a3.3,3.3,0,0,0,2.59-1,4.84,4.84,0,0,0,.87-3.26v-5.32a4.84,4.84,0,0,0-.87-3.26,3.3,3.3,0,0,0-2.59-1H79.25V330Z" transform="translate(-72.21 -84.54)"/><path d="M96.92,309.87h10.43c3.62,0,6.27.84,7.93,2.53s2.5,4.28,2.5,7.77v2.76q0,7-4.61,8.83v.13a5.49,5.49,0,0,1,3.62,3.13,15.88,15.88,0,0,1,1,6.34v7.87c0,1.28,0,2.31.13,3.1a8,8,0,0,0,.64,2.34h-7.17a11.14,11.14,0,0,1-.51-2.05,32,32,0,0,1-.13-3.45V341c0-2-.33-3.47-1-4.28a4.19,4.19,0,0,0-3.42-1.22H104v19.2h-7Zm9.6,19.2a4.19,4.19,0,0,0,3.16-1.09,5.1,5.1,0,0,0,1.06-3.65v-3.45a5.72,5.72,0,0,0-.86-3.52,3.27,3.27,0,0,0-2.72-1.09H104v12.8Z" transform="translate(-72.21 -84.54)"/><path d="M122.71,309.87h7v44.8h-7Z" transform="translate(-72.21 -84.54)"/><path d="M133.14,309.87h7.1l4.61,34.75H145l4.61-34.75h6.46l-6.78,44.8h-9.35Z" transform="translate(-72.21 -84.54)"/><path d="M163.09,309.87h9.54l7.29,44.8h-7l-1.28-8.9v.13h-8l-1.28,8.77h-6.53Zm7.68,29.95-3.14-22.14h-.12l-3.08,22.14Z" transform="translate(-72.21 -84.54)"/><path d="M185.87,316.27h-7.36v-6.4h21.76v6.4h-7.36v38.4h-7Z" transform="translate(-72.21 -84.54)"/><path d="M203.67,309.87h19.2v6.4H210.71v11.84h9.66v6.4h-9.66v13.76h12.16v6.4h-19.2Z" transform="translate(-72.21 -84.54)"/><path d="M242.64,316.27h-7.36v-6.4H257v6.4h-7.36v38.4h-7Z" transform="translate(-72.21 -84.54)"/><path d="M260.43,309.87h10.43q5.44,0,7.94,2.53c1.66,1.68,2.5,4.28,2.5,7.77v2.76q0,7-4.61,8.83v.13A5.47,5.47,0,0,1,280.3,335a15.69,15.69,0,0,1,1.06,6.34v7.87a28.67,28.67,0,0,0,.13,3.1,7.71,7.71,0,0,0,.64,2.34H275a9.73,9.73,0,0,1-.51-2.05,29.48,29.48,0,0,1-.13-3.45V341c0-2-.33-3.47-1-4.28a4.2,4.2,0,0,0-3.43-1.22h-2.43v19.2h-7Zm9.6,19.2A4.2,4.2,0,0,0,273.2,328a5.15,5.15,0,0,0,1.06-3.65v-3.45a5.65,5.65,0,0,0-.87-3.52,3.24,3.24,0,0,0-2.72-1.09h-3.2v12.8Z" transform="translate(-72.21 -84.54)"/><path d="M291.66,309.87h9.54l7.3,44.8h-7l-1.28-8.9v.13h-8l-1.28,8.77h-6.53Zm7.68,29.95-3.13-22.14h-.13L293,339.82Z" transform="translate(-72.21 -84.54)"/><path d="M311.89,309.87h8.83l6.85,26.82h.13V309.87H334v44.8h-7.23L318.29,322h-.13v32.7h-6.27Z" transform="translate(-72.21 -84.54)"/><path d="M340.62,352.4c-1.75-1.94-2.62-4.73-2.62-8.35v-2.56h6.65v3.07q0,4.35,3.65,4.35a3.41,3.41,0,0,0,2.72-1.06,5.11,5.11,0,0,0,.93-3.42,9.52,9.52,0,0,0-1.28-5,23.32,23.32,0,0,0-4.74-5.15,28.55,28.55,0,0,1-6.08-6.95,14.16,14.16,0,0,1-1.72-7q0-5.33,2.68-8.23t7.81-2.91q5.06,0,7.65,2.91c1.73,1.94,2.59,4.73,2.59,8.35v1.86h-6.65v-2.3a5.12,5.12,0,0,0-.9-3.36,3.23,3.23,0,0,0-2.62-1.06q-3.53,0-3.52,4.29a8.4,8.4,0,0,0,1.31,4.54,24.61,24.61,0,0,0,4.77,5.12,26.45,26.45,0,0,1,6.08,7,15.46,15.46,0,0,1,1.66,7.36c0,3.67-.91,6.48-2.72,8.45s-4.45,2.94-7.9,2.94S342.37,354.34,340.62,352.4Z" transform="translate(-72.21 -84.54)"/><path d="M363,309.87h18.63v6.4H370.06v12.48h9.09v6.4h-9.09v19.52h-7Z" transform="translate(-72.21 -84.54)"/><path d="M385,309.87h19.2v6.4H392.08v11.84h9.66v6.4h-9.66v13.76h12.16v6.4H385Z" transform="translate(-72.21 -84.54)"/><path d="M408.27,309.87H418.7c3.63,0,6.27.84,7.94,2.53s2.49,4.28,2.49,7.77v2.76q0,7-4.6,8.83v.13a5.47,5.47,0,0,1,3.61,3.13,15.69,15.69,0,0,1,1.06,6.34v7.87c0,1.28,0,2.31.12,3.1a7.73,7.73,0,0,0,.65,2.34H422.8a10.46,10.46,0,0,1-.52-2.05,32.76,32.76,0,0,1-.12-3.45V341c0-2-.33-3.47-1-4.28a4.19,4.19,0,0,0-3.42-1.22h-2.43v19.2h-7Zm9.6,19.2A4.22,4.22,0,0,0,421,328a5.15,5.15,0,0,0,1-3.65v-3.45a5.65,5.65,0,0,0-.86-3.52,3.25,3.25,0,0,0-2.72-1.09h-3.2v12.8Z" transform="translate(-72.21 -84.54)"/><path d="M435.47,352.4c-1.75-1.94-2.62-4.73-2.62-8.35v-2.56h6.65v3.07q0,4.35,3.65,4.35a3.42,3.42,0,0,0,2.72-1.06,5.11,5.11,0,0,0,.93-3.42,9.52,9.52,0,0,0-1.28-5,23.58,23.58,0,0,0-4.74-5.15,28.34,28.34,0,0,1-6.08-6.95,14.16,14.16,0,0,1-1.73-7q0-5.33,2.69-8.23c1.79-1.94,4.4-2.91,7.81-2.91s5.92,1,7.65,2.91,2.59,4.73,2.59,8.35v1.86h-6.66v-2.3a5.18,5.18,0,0,0-.89-3.36,3.24,3.24,0,0,0-2.63-1.06c-2.34,0-3.52,1.43-3.52,4.29a8.49,8.49,0,0,0,1.31,4.54,25.18,25.18,0,0,0,4.77,5.12,26.26,26.26,0,0,1,6.08,7,15.46,15.46,0,0,1,1.67,7.36c0,3.67-.91,6.48-2.72,8.45s-4.45,2.94-7.91,2.94S437.22,354.34,435.47,352.4Z" transform="translate(-72.21 -84.54)"/><path d="M473.55,309.87h9.53l7.3,44.8h-7l-1.28-8.9v.13h-8l-1.28,8.77h-6.53Zm7.68,29.95-3.14-22.14H478l-3.07,22.14Z" transform="translate(-72.21 -84.54)"/><path d="M493.77,309.87h8.83l6.85,26.82h.13V309.87h6.27v44.8h-7.23L500.17,322H500v32.7h-6.27Z" transform="translate(-72.21 -84.54)"/><path d="M521.1,309.87h10.75q5.25,0,7.87,2.82c1.75,1.87,2.63,4.63,2.63,8.25V343.6c0,3.62-.88,6.38-2.63,8.25s-4.37,2.82-7.87,2.82H521.1Zm10.62,38.4a3.42,3.42,0,0,0,2.66-1,4.91,4.91,0,0,0,.93-3.33v-23.3a4.91,4.91,0,0,0-.93-3.33,3.42,3.42,0,0,0-2.66-1h-3.58v32Z" transform="translate(-72.21 -84.54)"/><path d="M557.32,309.87h19.2v6.4H564.36v11.84H574v6.4h-9.67v13.76h12.16v6.4h-19.2Z" transform="translate(-72.21 -84.54)"/><path d="M586.89,331.76l-7.75-21.89h7.43l4.73,14.46h.13l4.87-14.46H603l-7.74,21.89,8.13,22.91h-7.43l-5.12-15.62h-.13l-5.24,15.62h-6.66Z" transform="translate(-72.21 -84.54)"/><path d="M607.85,352.43q-2.65-2.88-2.66-8.13V320.24q0-5.25,2.66-8.13t7.71-2.88q5.06,0,7.71,2.88t2.66,8.13V325h-6.66v-5.18q0-4.16-3.52-4.16t-3.52,4.16v25q0,4.1,3.52,4.1t3.52-4.1V338h6.66v6.33q0,5.25-2.66,8.13t-7.71,2.88Q610.51,355.31,607.85,352.43Z" transform="translate(-72.21 -84.54)"/><path d="M632.58,352.4c-1.79-1.94-2.68-4.73-2.68-8.35V309.87h7v34.69a4.91,4.91,0,0,0,.92,3.33,4,4,0,0,0,5.32,0,5,5,0,0,0,.92-3.33V309.87h6.79v34.18c0,3.62-.9,6.41-2.69,8.35s-4.39,2.91-7.81,2.91S634.38,354.34,632.58,352.4Z" transform="translate(-72.21 -84.54)"/><path d="M655.88,309.87h10.43c3.63,0,6.27.84,7.94,2.53s2.49,4.28,2.49,7.77v2.76q0,7-4.6,8.83v.13a5.47,5.47,0,0,1,3.61,3.13,15.69,15.69,0,0,1,1.06,6.34v7.87a28.67,28.67,0,0,0,.13,3.1,7.43,7.43,0,0,0,.64,2.34h-7.17a9.73,9.73,0,0,1-.51-2.05,29.48,29.48,0,0,1-.13-3.45V341c0-2-.33-3.47-1-4.28a4.23,4.23,0,0,0-3.43-1.22h-2.43v19.2h-7Zm9.6,19.2a4.22,4.22,0,0,0,3.17-1.09,5.15,5.15,0,0,0,1.05-3.65v-3.45a5.65,5.65,0,0,0-.86-3.52,3.25,3.25,0,0,0-2.72-1.09h-3.2v12.8Z" transform="translate(-72.21 -84.54)"/><path d="M683.08,352.4c-1.75-1.94-2.62-4.73-2.62-8.35v-2.56h6.65v3.07q0,4.35,3.65,4.35a3.42,3.42,0,0,0,2.72-1.06,5.11,5.11,0,0,0,.93-3.42,9.52,9.52,0,0,0-1.28-5,23.58,23.58,0,0,0-4.74-5.15,28.34,28.34,0,0,1-6.08-6.95,14.16,14.16,0,0,1-1.73-7q0-5.33,2.69-8.23c1.79-1.94,4.4-2.91,7.81-2.91s5.92,1,7.65,2.91,2.59,4.73,2.59,8.35v1.86h-6.66v-2.3a5.18,5.18,0,0,0-.89-3.36,3.24,3.24,0,0,0-2.63-1.06c-2.34,0-3.52,1.43-3.52,4.29a8.41,8.41,0,0,0,1.32,4.54,24.79,24.79,0,0,0,4.76,5.12,26.26,26.26,0,0,1,6.08,7,15.46,15.46,0,0,1,1.67,7.36c0,3.67-.91,6.48-2.72,8.45s-4.45,2.94-7.91,2.94S684.83,354.34,683.08,352.4Z" transform="translate(-72.21 -84.54)"/><path d="M705.48,309.87h7v44.8h-7Z" transform="translate(-72.21 -84.54)"/><path d="M720,352.37q-2.76-3-2.76-8.32V320.49q0-5.37,2.76-8.32c1.83-2,4.48-2.94,7.93-2.94s6.1,1,7.94,2.94,2.75,4.74,2.75,8.32v23.56q0,5.37-2.75,8.32c-1.84,2-4.48,2.94-7.94,2.94S721.84,354.33,720,352.37Zm11.58-7.88V320.05q0-4.43-3.65-4.42t-3.65,4.42v24.44q0,4.42,3.65,4.42T731.59,344.49Z" transform="translate(-72.21 -84.54)"/><path d="M743.37,309.87h8.83l6.85,26.82h.12V309.87h6.28v44.8h-7.24L749.77,322h-.13v32.7h-6.27Z" transform="translate(-72.21 -84.54)"/><path d="M772.1,352.4c-1.75-1.94-2.62-4.73-2.62-8.35v-2.56h6.65v3.07q0,4.35,3.65,4.35a3.41,3.41,0,0,0,2.72-1.06,5.11,5.11,0,0,0,.93-3.42,9.52,9.52,0,0,0-1.28-5,23.58,23.58,0,0,0-4.74-5.15,28.55,28.55,0,0,1-6.08-6.95,14.16,14.16,0,0,1-1.72-7q0-5.33,2.68-8.23c1.79-1.94,4.4-2.91,7.81-2.91s5.92,1,7.65,2.91,2.59,4.73,2.59,8.35v1.86h-6.65v-2.3a5.12,5.12,0,0,0-.9-3.36,3.24,3.24,0,0,0-2.63-1.06q-3.51,0-3.51,4.29a8.4,8.4,0,0,0,1.31,4.54,24.61,24.61,0,0,0,4.77,5.12,26.45,26.45,0,0,1,6.08,7,15.58,15.58,0,0,1,1.66,7.36c0,3.67-.91,6.48-2.72,8.45s-4.45,2.94-7.9,2.94S773.85,354.34,772.1,352.4Z" transform="translate(-72.21 -84.54)"/><path d="M810.18,309.87h9.54l7.29,44.8h-7l-1.28-8.9v.13h-8l-1.28,8.77h-6.53Zm7.68,29.95-3.14-22.14h-.12l-3.08,22.14Z" transform="translate(-72.21 -84.54)"/><path d="M832.48,352.43q-2.65-2.88-2.65-8.13V320.24q0-5.25,2.65-8.13t7.72-2.88q5.06,0,7.71,2.88t2.65,8.13V325h-6.65v-5.18c0-2.77-1.18-4.16-3.52-4.16s-3.52,1.39-3.52,4.16v25q0,4.1,3.52,4.1c2.34,0,3.52-1.37,3.52-4.1V338h6.65v6.33q0,5.25-2.65,8.13t-7.71,2.88Q835.13,355.31,832.48,352.43Z" transform="translate(-72.21 -84.54)"/><path d="M854.79,309.87h10.43c3.62,0,6.27.84,7.93,2.53s2.5,4.28,2.5,7.77v2.76q0,7-4.61,8.83v.13a5.49,5.49,0,0,1,3.62,3.13,15.88,15.88,0,0,1,1.05,6.34v7.87c0,1.28,0,2.31.13,3.1a8,8,0,0,0,.64,2.34h-7.16a10.46,10.46,0,0,1-.52-2.05,32,32,0,0,1-.13-3.45V341c0-2-.33-3.47-1-4.28a4.19,4.19,0,0,0-3.42-1.22h-2.43v19.2h-7Zm9.6,19.2a4.19,4.19,0,0,0,3.16-1.09,5.1,5.1,0,0,0,1.06-3.65v-3.45a5.72,5.72,0,0,0-.86-3.52,3.27,3.27,0,0,0-2.72-1.09h-3.2v12.8Z" transform="translate(-72.21 -84.54)"/><path d="M882.82,352.37c-1.84-2-2.75-4.74-2.75-8.32V320.49c0-3.58.91-6.35,2.75-8.32s4.48-2.94,7.93-2.94,6.11,1,7.94,2.94,2.75,4.74,2.75,8.32v23.56c0,3.58-.91,6.35-2.75,8.32s-4.48,2.94-7.94,2.94S884.65,354.33,882.82,352.37Zm11.58-7.88V320.05c0-2.95-1.21-4.42-3.65-4.42s-3.64,1.47-3.64,4.42v24.44q0,4.42,3.64,4.42C893.19,348.91,894.4,347.44,894.4,344.49Z" transform="translate(-72.21 -84.54)"/><path d="M907.59,352.4c-1.75-1.94-2.63-4.73-2.63-8.35v-2.56h6.66v3.07c0,2.9,1.21,4.35,3.65,4.35a3.42,3.42,0,0,0,2.72-1.06,5.16,5.16,0,0,0,.92-3.42,9.42,9.42,0,0,0-1.28-5,23.48,23.48,0,0,0-4.73-5.15,28.34,28.34,0,0,1-6.08-6.95,14.16,14.16,0,0,1-1.73-7q0-5.33,2.69-8.23t7.81-2.91q5.05,0,7.64,2.91c1.73,1.94,2.6,4.73,2.6,8.35v1.86h-6.66v-2.3a5.12,5.12,0,0,0-.9-3.36,3.22,3.22,0,0,0-2.62-1.06q-3.52,0-3.52,4.29a8.49,8.49,0,0,0,1.31,4.54,25.18,25.18,0,0,0,4.77,5.12,26.45,26.45,0,0,1,6.08,7,15.46,15.46,0,0,1,1.66,7.36c0,3.67-.9,6.48-2.72,8.45s-4.44,2.94-7.9,2.94S909.34,354.34,907.59,352.4Z" transform="translate(-72.21 -84.54)"/><path d="M931.39,352.4c-1.75-1.94-2.62-4.73-2.62-8.35v-2.56h6.66v3.07q0,4.35,3.64,4.35a3.39,3.39,0,0,0,2.72-1.06,5.11,5.11,0,0,0,.93-3.42,9.52,9.52,0,0,0-1.28-5,23.48,23.48,0,0,0-4.73-5.15,28.12,28.12,0,0,1-6.08-6.95,14.06,14.06,0,0,1-1.73-7c0-3.55.89-6.29,2.69-8.23s4.39-2.91,7.8-2.91,5.92,1,7.65,2.91,2.59,4.73,2.59,8.35v1.86H943v-2.3a5.12,5.12,0,0,0-.9-3.36,3.23,3.23,0,0,0-2.62-1.06q-3.53,0-3.52,4.29a8.4,8.4,0,0,0,1.31,4.54,24.61,24.61,0,0,0,4.77,5.12,26.45,26.45,0,0,1,6.08,7,15.46,15.46,0,0,1,1.66,7.36c0,3.67-.9,6.48-2.72,8.45s-4.45,2.94-7.9,2.94S933.14,354.34,931.39,352.4Z" transform="translate(-72.21 -84.54)"/><path d="M965.44,352.4c-1.75-1.94-2.62-4.73-2.62-8.35v-2.56h6.65v3.07q0,4.35,3.65,4.35a3.41,3.41,0,0,0,2.72-1.06,5.11,5.11,0,0,0,.93-3.42,9.52,9.52,0,0,0-1.28-5,23.58,23.58,0,0,0-4.74-5.15,28.34,28.34,0,0,1-6.08-6.95,14.16,14.16,0,0,1-1.72-7q0-5.33,2.68-8.23c1.79-1.94,4.4-2.91,7.81-2.91s5.92,1,7.65,2.91,2.59,4.73,2.59,8.35v1.86H977v-2.3a5.12,5.12,0,0,0-.9-3.36,3.24,3.24,0,0,0-2.63-1.06q-3.51,0-3.51,4.29a8.4,8.4,0,0,0,1.31,4.54,24.61,24.61,0,0,0,4.77,5.12,26.64,26.64,0,0,1,6.08,7,15.58,15.58,0,0,1,1.66,7.36c0,3.67-.91,6.48-2.72,8.45s-4.45,2.94-7.9,2.94S967.19,354.34,965.44,352.4Z" transform="translate(-72.21 -84.54)"/><path d="M987.84,309.87h7v44.8h-7Z" transform="translate(-72.21 -84.54)"/><path d="M1002.34,352.43c-1.78-1.92-2.66-4.63-2.66-8.13V320.24c0-3.5.88-6.21,2.66-8.13s4.34-2.88,7.71-2.88,5.94,1,7.71,2.88,2.66,4.63,2.66,8.13V325h-6.66v-5.18q0-4.16-3.52-4.16t-3.52,4.16v25q0,4.1,3.52,4.1t3.52-4.1V338h6.66v6.33q0,5.25-2.66,8.13t-7.71,2.88Q1005,355.31,1002.34,352.43Z" transform="translate(-72.21 -84.54)"/><path d="M1024.64,309.87h7v44.8h-7Z" transform="translate(-72.21 -84.54)"/><path d="M1036.93,309.87h7v38.4h11.58v6.4h-18.62Z" transform="translate(-72.21 -84.54)"/><path d="M1059.77,335.6l-8.51-25.73h7.49l4.8,16.45h.13l4.8-16.45h6.85l-8.52,25.73v19.07h-7Z" transform="translate(-72.21 -84.54)"/><path d="M163.25,252.16q-10.2-11.29-10.19-32.43v-9.94H178.9v11.93q0,16.91,14.17,16.9c4.63,0,8.16-1.37,10.56-4.1s3.6-7.16,3.6-13.3a36.81,36.81,0,0,0-5-19.26q-5-8.33-18.39-20Q167,167.05,160.26,155a55,55,0,0,1-6.71-27.21q0-20.62,10.44-31.94t30.32-11.3q19.63,0,29.7,11.3t10.06,32.44v7.2H208.23v-8.94q0-9-3.48-13.05t-10.19-4.1q-13.67,0-13.67,16.65a32.77,32.77,0,0,0,5.1,17.64q5.08,8.2,18.51,19.89,17.15,14.91,23.61,27.09t6.46,28.58q0,21.38-10.56,32.8t-30.69,11.43Q173.43,263.47,163.25,252.16Z" transform="translate(-72.21 -84.54)"/><path d="M270.61,87h37L336,261H308.63l-5-34.55v.5H272.6l-5,34.05H242.28Zm29.82,116.31-12.18-86h-.49l-11.93,86Z" transform="translate(-72.21 -84.54)"/><path d="M349.14,87h34.29L410,191.15h.5V87h24.36V261H406.79L374,134h-.5V261H349.14Z" transform="translate(-72.21 -84.54)"/><path d="M503.59,252.29q-10.32-11.19-10.32-31.56V127.28q0-20.37,10.32-31.56t29.94-11.18q19.63,0,30,11.18t10.31,31.56v18.39H548V125.54q0-16.16-13.67-16.15t-13.67,16.15v97.17q0,15.91,13.67,15.91T548,222.71V196.12h25.84v24.61q0,20.37-10.31,31.56t-30,11.18Q513.9,263.47,503.59,252.29Z" transform="translate(-72.21 -84.54)"/><path d="M599.64,252.16q-10.44-11.29-10.44-32.43V87h27.34v134.7q0,9,3.6,12.92t10.32,4q6.7,0,10.31-4t3.6-12.92V87h26.35V219.73q0,21.14-10.44,32.43T630,263.47Q610.07,263.47,599.64,252.16Z" transform="translate(-72.21 -84.54)"/><path d="M690.1,87h27.34V236.13h45V261H690.1Z" transform="translate(-72.21 -84.54)"/><path d="M775.59,87h27.34V261H775.59Z" transform="translate(-72.21 -84.54)"/><path d="M823.3,87h34.3l26.59,104.13h.5V87H909V261H881L848.15,134h-.49V261H823.3Z" transform="translate(-72.21 -84.54)"/><path d="M938.12,252q-10.7-11.43-10.69-32.31V128.28q0-20.88,10.69-32.31t30.81-11.43q20.13,0,30.82,11.43t10.69,32.31v91.45q0,20.88-10.69,32.31t-30.82,11.43Q948.8,263.47,938.12,252Zm45-30.57V126.54q0-17.16-14.17-17.15t-14.16,17.15v94.93q0,17.15,14.16,17.15T983.1,221.47Z" transform="translate(-72.21 -84.54)"/></svg>